<?xml version="1.0" encoding="UTF-8" standalone="no"?>
<!-- Created with Inkscape (http://www.inkscape.org/) -->

<svg
   width="183.05687mm"
   height="108.47918mm"
   viewBox="1 1 191.81562 113.6696"
   version="1.1"
   id="svg1"
   xml:space="preserve"
   xmlns="http://www.w3.org/2000/svg"
   xmlns:svg="http://www.w3.org/2000/svg"><defs
     id="defs1"><marker
       style="overflow:visible"
       id="Triangle"
       refX="0"
       refY="0"
       orient="auto-start-reverse"
       markerWidth="0.40000001"
       markerHeight="0.40000001"
       viewBox="0 0 1 1"
       preserveAspectRatio="xMidYMid"><path
         transform="scale(0.5)"
         style="fill:context-stroke;fill-rule:evenodd;stroke:context-stroke;stroke-width:1pt"
         d="M 5.77,0 -2.88,5 V -5 Z"
         id="path135" /></marker><marker
       style="overflow:visible"
       id="Triangle-22"
       refX="0"
       refY="0"
       orient="auto-start-reverse"
       markerWidth="0.40000001"
       markerHeight="0.40000001"
       viewBox="0 0 1 1"
       preserveAspectRatio="xMidYMid"><path
         transform="scale(0.5)"
         style="fill:context-stroke;fill-rule:evenodd;stroke:context-stroke;stroke-width:1pt"
         d="M 5.77,0 -2.88,5 V -5 Z"
         id="path135-4" /></marker><marker
       style="overflow:visible"
       id="Triangle-8"
       refX="0"
       refY="0"
       orient="auto-start-reverse"
       markerWidth="0.40000001"
       markerHeight="0.40000001"
       viewBox="0 0 1 1"
       preserveAspectRatio="xMidYMid"><path
         transform="scale(0.5)"
         style="fill:context-stroke;fill-rule:evenodd;stroke:context-stroke;stroke-width:1pt"
         d="M 5.77,0 -2.88,5 V -5 Z"
         id="path135-44" /></marker><marker
       style="overflow:visible"
       id="Triangle-9"
       refX="0"
       refY="0"
       orient="auto-start-reverse"
       markerWidth="0.40000001"
       markerHeight="0.40000001"
       viewBox="0 0 1 1"
       preserveAspectRatio="xMidYMid"><path
         transform="scale(0.5)"
         style="fill:context-stroke;fill-rule:evenodd;stroke:context-stroke;stroke-width:1pt"
         d="M 5.77,0 -2.88,5 V -5 Z"
         id="path135-94" /></marker><marker
       style="overflow:visible"
       id="Triangle-2-8"
       refX="0"
       refY="0"
       orient="auto-start-reverse"
       markerWidth="0.40000001"
       markerHeight="0.40000001"
       viewBox="0 0 1 1"
       preserveAspectRatio="xMidYMid"><path
         transform="scale(0.5)"
         style="fill:context-stroke;fill-rule:evenodd;stroke:context-stroke;stroke-width:1pt"
         d="M 5.77,0 -2.88,5 V -5 Z"
         id="path135-9-9" /></marker><marker
       style="overflow:visible"
       id="Triangle-5"
       refX="0"
       refY="0"
       orient="auto-start-reverse"
       markerWidth="0.40000001"
       markerHeight="0.40000001"
       viewBox="0 0 1 1"
       preserveAspectRatio="xMidYMid"><path
         transform="scale(0.5)"
         style="fill:context-stroke;fill-rule:evenodd;stroke:context-stroke;stroke-width:1pt"
         d="M 5.77,0 -2.88,5 V -5 Z"
         id="path135-42" /></marker><marker
       style="overflow:visible"
       id="Triangle-2-8-3"
       refX="0"
       refY="0"
       orient="auto-start-reverse"
       markerWidth="0.40000001"
       markerHeight="0.40000001"
       viewBox="0 0 1 1"
       preserveAspectRatio="xMidYMid"><path
         transform="scale(0.5)"
         style="fill:context-stroke;fill-rule:evenodd;stroke:context-stroke;stroke-width:1pt"
         d="M 5.77,0 -2.88,5 V -5 Z"
         id="path135-9-9-1" /></marker><marker
       style="overflow:visible"
       id="Triangle-5-5"
       refX="0"
       refY="0"
       orient="auto-start-reverse"
       markerWidth="0.40000001"
       markerHeight="0.40000001"
       viewBox="0 0 1 1"
       preserveAspectRatio="xMidYMid"><path
         transform="scale(0.5)"
         style="fill:context-stroke;fill-rule:evenodd;stroke:context-stroke;stroke-width:1pt"
         d="M 5.77,0 -2.88,5 V -5 Z"
         id="path135-42-6" /></marker><marker
       style="overflow:visible"
       id="Triangle-2-8-3-4"
       refX="0"
       refY="0"
       orient="auto-start-reverse"
       markerWidth="0.40000001"
       markerHeight="0.40000001"
       viewBox="0 0 1 1"
       preserveAspectRatio="xMidYMid"><path
         transform="scale(0.5)"
         style="fill:context-stroke;fill-rule:evenodd;stroke:context-stroke;stroke-width:1pt"
         d="M 5.77,0 -2.88,5 V -5 Z"
         id="path135-9-9-1-5" /></marker></defs><g
     id="g1"
     transform="translate(-4.280404,135.90284)"><rect
       style="fill:#ffffff;fill-opacity:1;stroke:none;stroke-width:0.13622;stroke-dasharray:none;stroke-opacity:1"
       id="rect245"
       width="191.81563"
       height="113.66959"
       x="5.2804041"
       y="-134.90283"
       ry="3.2825575"
       rx="3.2825575" /><g
       id="g102"
       transform="translate(-38.689651,-184.18993)"><path
         id="ellipse12155"
         style="fill:#999999;fill-opacity:1;stroke:none;stroke-width:0.999998;stroke-miterlimit:4;stroke-dasharray:none;stroke-opacity:1"
         d="m 164.75377,109.93799 v 8.82375 a 11.749863,2.3448174 0 0 0 11.75019,2.34456 11.749863,2.3448174 0 0 0 11.74967,-2.34456 v -8.82375 z" /><ellipse
         ry="2.3448174"
         rx="11.749863"
         cy="109.93779"
         cx="176.50366"
         id="ellipse12159"
         style="fill:#4d4d4d;fill-opacity:1;stroke:none;stroke-width:0.999998;stroke-miterlimit:4;stroke-dasharray:none;stroke-opacity:1" /><path
         id="ellipse12149"
         style="fill:#cccccc;fill-opacity:1;stroke:none;stroke-width:0.999998;stroke-miterlimit:4;stroke-dasharray:none;stroke-opacity:1"
         d="m 164.75377,99.613558 v 8.823752 a 11.749863,2.3448174 0 0 0 11.75019,2.34508 11.749863,2.3448174 0 0 0 11.74967,-2.34508 v -8.823752 z" /><ellipse
         style="fill:#4d4d4d;fill-opacity:1;stroke:none;stroke-width:0.999998;stroke-miterlimit:4;stroke-dasharray:none;stroke-opacity:1"
         id="ellipse12153"
         cx="176.50366"
         cy="99.613678"
         rx="11.749863"
         ry="2.3448174" /><path
         id="ellipse12129"
         style="fill:#e6e6e6;fill-opacity:1;stroke:none;stroke-width:0.999998;stroke-miterlimit:4;stroke-dasharray:none;stroke-opacity:1"
         d="m 164.75377,89.28964 v 8.823751 a 11.749863,2.3448174 0 0 0 11.75019,2.344559 11.749863,2.3448174 0 0 0 11.74967,-2.344559 V 89.28964 Z" /><ellipse
         ry="2.3448174"
         rx="11.749863"
         cy="89.289566"
         cx="176.50366"
         id="path64928-26"
         style="fill:#4d4d4d;fill-opacity:1;stroke:none;stroke-width:0.999998;stroke-miterlimit:4;stroke-dasharray:none;stroke-opacity:1" /><circle
         r="0.81711441"
         cy="97.536209"
         cx="185.19115"
         id="path12587"
         style="fill:#333333;fill-opacity:1;stroke:none;stroke-width:0.999998;stroke-miterlimit:4;stroke-dasharray:4, 0.999998;stroke-dashoffset:0;stroke-opacity:1" /><circle
         r="0.81711441"
         cy="107.86033"
         cx="185.19115"
         id="path12587-4"
         style="fill:#333333;fill-opacity:1;stroke:none;stroke-width:0.999998;stroke-miterlimit:4;stroke-dasharray:4, 0.999998;stroke-dashoffset:0;stroke-opacity:1" /><circle
         r="0.81711441"
         cy="118.18443"
         cx="185.19115"
         id="path12587-9"
         style="fill:#333333;fill-opacity:1;stroke:none;stroke-width:0.999998;stroke-miterlimit:4;stroke-dasharray:4, 0.999998;stroke-dashoffset:0;stroke-opacity:1" /><g
         id="bb79a6a6-982c-45a3-9a37-778a2e0167f5"
         data-name="Layer 2"
         transform="matrix(0.05388487,0,0,0.05388487,166.70299,102.73517)"
         style="stroke-width:4.91015"><g
           id="f54836a9-e9b8-47ec-9c82-9ffb3bd7fadd"
           data-name="logos"
           style="stroke-width:4.91015"><g
             id="acd73564-eaeb-4619-91a7-6c4f2c044a0e"
             data-name="TileDB_logo_default"
             style="stroke-width:4.91015"><path
               id="b8406464-7034-4662-b377-cd947ec2714f"
               data-name="DB"
               d="m 352.23466,45.01 a 15.31284,15.31284 0 0 0 9.34,-14.5 c 0,-9.86 -8.25,-17.28 -22.67,-17.28 h -20.63 v 64.95 h 22.14 c 15.54,0 23.35,-7.52 23.35,-18.13 3e-5,-7.15 -4.12997,-12.43 -11.53,-15.04 z m -22.44,-21.28 h 9.5 c 6.76,0 10.17005,3.08 10.17005,8.08 -6e-5,4.64 -3.11005,8.09 -9.39,8.09 h -10.28 z m 11.01,43.95 h -11.01 V 50.39 h 10.62 c 7.85,0 11.63,3.43005 11.63,8.73 0,5.02 -3.60998,8.56 -11.23999,8.56 z M 306.11,33.26 a 31.56592,31.56592 0 0 0 -4.44,-10.31 22.84533,22.84533 0 0 0 -7.84,-7.16 23.24286,23.24286 0 0 0 -11.47,-2.7 h -20.58 v 64.95 h 20.58 a 23.6382,23.6382 0 0 0 11.57,-2.67 22.649,22.649 0 0 0 7.84,-7.16 30.9085,30.9085 0 0 0 4.39,-10.36 54.54844,54.54844 0 0 0 1.36,-12.3 52.12553,52.12553 0 0 0 -1.41,-12.29 z M 281.03,67.54 H 273.3 V 23.59 h 7.5 c 8.29,0 14.8,7.65 14.8,21.93 0,15.14 -5.48,22.02 -14.57,22.02 z"
               style="fill:#4d9fff;stroke-width:4.91015" /><path
               id="accf3359-ee8b-44e6-8962-ddc3db70962e"
               data-name="tile"
               d="M 215.64,0 H 238.2 V 91.41 H 215.64 V 80.91 H 227.7 V 10.5 h -12.06 z m -4.96,59.86 h -35.93 c 1.46,5.42 6.63,8.94 13.75,8.94 6.09,0 9.83,-1.38 13.53,-4.79 l 7.03,7.37 c -5.36,5.21 -11.97,7.92 -20.46,7.92 -15.48,0 -25.96,-9.31 -25.96,-24.38 0,-13.37 9.91,-24.61 24.64,-24.61 14.48,0 24.25,10.5 24.26,23.06 a 23.085,23.085 0 0 1 -0.86,6.49 z M 199.3,49.56 c -0.84,-4.85 -5.55,-8.75 -12.14,-8.75 -6.46,0 -11.12,3.68 -12.25,8.75 z M 141.54,13.23 h -20.66 v 10.5 h 9.14 v 43.95 h -9.92 v 10.5 h 31.91 V 67.68 H 141.54 Z M 99.12,31.38 H 78.46 v 10.5 h 9.14 v 25.8 H 77.58 v 10.5 h 31.91 V 67.68 H 99.12 Z M 87.13,23.73 h 12 v -10.5 h -12 z M 47.92,41.88 H 66.95 V 31.38 H 47.92 V 13.23 H 36.4 V 31.38 H 26.13 v 10.5 H 36.4 V 66.35 A 11.83878,11.83878 0 0 0 48.24,78.19 H 66.95 V 67.69 H 47.92 Z M 0,91.41 H 22.56 V 80.91 H 10.49 V 10.5 H 22.56 V 0 H 0 Z"
               style="fill:#001e73;stroke-width:4.91015" /></g></g></g></g><path
       d="m 31.186561,-71.188491 -0.122759,0.12004 -0.06044,0.17165 3.327198,3.3272 0.171028,-0.061 v -3.438 l -0.120035,-0.11982 z"
       style="vector-effect:none;fill:#b3b3b3;fill-opacity:1;stroke:none;stroke-width:0.0661458;stroke-linecap:butt;stroke-linejoin:round;stroke-miterlimit:4;stroke-dasharray:none;stroke-dashoffset:0;stroke-opacity:1"
       id="path1185-6-6-1" /><path
       style="fill:#cccccc;fill-opacity:1;stroke:none;stroke-width:1.38756;stroke-miterlimit:4;stroke-dasharray:none;stroke-dashoffset:0;stroke-opacity:1"
       d="m 17.942524,-75.239321 a 0.64373514,0.64373514 0 0 0 -0.65521,0.6274 v 0.0184 18.998527 a 0.64373514,0.64373514 0 0 1 0,-0.0639 0.64373514,0.64373514 0 0 0 0,0.0639 v 0.0183 a 0.64373514,0.64373514 0 0 0 0.641187,0.64164 h 15.926674 a 0.64373514,0.64373514 0 0 0 0.646414,-0.63668 0.64373514,0.64373514 0 0 0 0,-0.0206 v -12.585177 0 0.5468 l -3.437884,-3.43786 H 30.76616 a 0.4413958,0.4413958 0 0 1 -0.305265,-0.12889 0.4413958,0.4413958 0 0 1 -0.129636,-0.31833 v -3.72364 z"
       id="path8563-72-3-6-7-0" /><path
       style="fill:#cccccc;fill-opacity:1;stroke:none;stroke-width:1.38756;stroke-miterlimit:4;stroke-dasharray:none;stroke-dashoffset:0;stroke-opacity:1"
       d="m 17.49407,-56.051744 a 0.64373514,0.64373514 0 0 0 -0.04517,0.0456 0.64373514,0.64373514 0 0 1 0.04517,-0.0456 z"
       id="path8559-2-3-74-8-1" /><path
       style="fill:#cccccc;fill-opacity:1;stroke:none;stroke-width:1.38756;stroke-miterlimit:4;stroke-dasharray:none;stroke-dashoffset:0;stroke-opacity:1"
       d="m 33.375712,-56.005634 a 0.64373514,0.64373514 0 0 0 -0.07486,0.1042 0.64373514,0.64373514 0 0 1 0.07486,-0.1042 z"
       id="path8557-9-0-9-4-8" /><path
       style="fill:#cccccc;fill-opacity:1;stroke:none;stroke-width:1.38756;stroke-miterlimit:4;stroke-dasharray:none;stroke-dashoffset:0;stroke-opacity:1"
       d="m 33.300496,-55.901324 a 0.64373514,0.64373514 0 0 0 -0.08674,0.30627 v 0.0183 a 0.64373514,0.64373514 0 0 0 0,0.055 0.64373514,0.64373514 0 0 1 0,-0.055 v -0.0183 a 0.64373514,0.64373514 0 0 1 0.08674,-0.30627 z"
       id="path8555-9-9-8-1-7" /><path
       style="fill:#cccccc;fill-opacity:1;stroke:none;stroke-width:1.38756;stroke-miterlimit:4;stroke-dasharray:none;stroke-dashoffset:0;stroke-opacity:1"
       d="m 33.21981,-55.496974 a 0.64373514,0.64373514 0 0 0 0,0.0395 0.64373514,0.64373514 0 0 1 0,-0.0395 z"
       id="path8553-6-2-52-7-6" /><path
       style="fill:#cccccc;fill-opacity:1;stroke:none;stroke-width:1.38756;stroke-miterlimit:4;stroke-dasharray:none;stroke-dashoffset:0;stroke-opacity:1"
       d="m 33.231932,-55.431264 a 0.64373514,0.64373514 0 0 0 0.01188,0.0324 0.64373514,0.64373514 0 0 1 -0.01188,-0.0324 z"
       id="path8534-0-5-8-1-0" /><path
       style="fill:#cab3d2;fill-opacity:1;stroke:none;stroke-width:1.38756;stroke-miterlimit:4;stroke-dasharray:none;stroke-dashoffset:0;stroke-opacity:1"
       d="m 30.33102,-75.239321 v 3.72342 a 0.4413959,0.4413959 0 0 0 0.12964,0.31833 0.4413959,0.4413959 0 0 0 0.305142,0.12891 h 3.735673 z m 0.0808,3.47535 a 0.4413959,0.4413959 0 0 0 -0.04278,0.0767 0.4413959,0.4413959 0 0 0 -0.02733,0.0838 0.44139583,0.44139583 0 0 1 0.02733,-0.0838 0.44139583,0.44139583 0 0 1 0.04278,-0.0767 z"
       id="path8492-7-8-8-8-0" /><rect
       style="fill:#cab3d2;fill-opacity:1;stroke:#8f5fa0;stroke-width:0.2;stroke-miterlimit:4;stroke-dasharray:none;stroke-dashoffset:0;stroke-opacity:1"
       id="rect8542-0-9-0-78-9"
       width="15.587188"
       height="6.4763651"
       x="14.938791"
       y="-63.976299"
       ry="0.95082468" /><text
       xml:space="preserve"
       style="font-style:normal;font-variant:normal;font-weight:normal;font-stretch:normal;font-size:3.09439px;line-height:1;font-family:Roboto;-inkscape-font-specification:Roboto;text-align:center;letter-spacing:0px;word-spacing:0px;text-anchor:middle;fill:#333333;fill-opacity:1;stroke:none;stroke-width:0.193429"
       x="22.759588"
       y="-59.691311"
       id="text64910-5-4-5-3-8-5-6-1-3-4-36-2-3-7-5"><tspan
         x="22.759588"
         y="-59.691311"
         style="font-style:normal;font-variant:normal;font-weight:900;font-stretch:normal;font-size:3.09439px;font-family:Roboto;-inkscape-font-specification:'Roboto Heavy';text-align:center;text-anchor:middle;fill:#333333;fill-opacity:1;stroke-width:0.193429"
         id="tspan12320-9-8-5-9-6-0-9-8-80-1-89-74-6">FASTA</tspan></text><path
       id="path1682-3-7"
       style="vector-effect:none;fill:#808080;fill-opacity:1;stroke:none;stroke-width:0.132292;stroke-linecap:butt;stroke-linejoin:round;stroke-miterlimit:4;stroke-dasharray:none;stroke-dashoffset:0;stroke-opacity:1"
       d="m 32.005451,-66.967341 c -1.281174,0 -1.607254,-2.53549 -2.888427,-2.53549 h -1.283388 c -0.280253,0 -0.514789,0.12106 -0.72363,0.31066 -0.02982,0.027 -0.05928,0.0559 -0.0881,0.0855 -0.02882,0.0297 -0.0571,0.0607 -0.08507,0.0926 -0.391599,0.44852 -0.703239,1.10912 -1.094827,1.55769 -0.02797,0.032 -0.05621,0.0629 -0.08506,0.0926 -0.05476,0.0564 -0.111438,0.10833 -0.169959,0.15474 -0.153883,-0.12209 -0.29327,-0.28286 -0.425652,-0.46201 -0.139579,0.19615 -0.287814,0.37789 -0.457786,0.52086 -0.04363,0.0367 -0.08898,0.0707 -0.135964,0.10168 0.116808,0.0511 0.241558,0.081 0.377625,0.081 h 1.283388 c 0.920844,0 1.348347,-1.30973 1.991626,-2.04659 0.02797,-0.032 0.05621,-0.0629 0.08506,-0.0926 0.05478,-0.0565 0.111405,-0.10833 0.169957,-0.15474 0.798358,0.63335 1.20972,2.29399 2.246644,2.29399 z m -2.274215,1.6e-4 c -0.76575,0 -1.190764,-0.90455 -1.681983,-1.63344 -0.208215,0.3019 -0.408463,0.64626 -0.629264,0.95261 -0.0036,0.004 -0.0073,0.01 -0.01079,0.0144 0.28702,0.37936 0.608758,0.66647 1.038684,0.66647 z m -2.508939,-2.45397 c -0.117301,-0.0517 -0.242748,-0.0818 -0.379486,-0.0818 h -1.283387 c -1.036931,0 -1.448292,1.66065 -2.246647,2.29399 -0.798357,-0.63334 -1.209719,-2.29399 -2.246644,-2.29399 h -1.283389 c 1.28118,0 1.607252,2.53582 2.888425,2.53582 h 1.283387 c 1.036927,0 1.448289,-1.66064 2.246647,-2.29399 0.153991,0.12216 0.293529,0.28287 0.425992,0.46218 0.07232,-0.10102 0.146234,-0.19928 0.224578,-0.28901 0.02903,-0.0332 0.05848,-0.0658 0.08895,-0.0972 0.03022,-0.0312 0.06144,-0.0617 0.09335,-0.0907 0.05943,-0.0539 0.122489,-0.10211 0.18822,-0.14526 z m -2.842593,0.58529 c -0.287167,-0.37974 -0.609151,-0.66697 -1.039361,-0.66697 h -1.283558 c 0.764062,0 1.188946,0.9004 1.678771,1.62837 0.172786,-0.24606 0.341129,-0.52 0.517312,-0.78214 0.04127,-0.0615 0.08383,-0.12073 0.126836,-0.17926 z" /><path
       d="m 31.186561,-101.34284 -0.122759,0.12004 -0.06044,0.17165 3.327198,3.327202 0.171028,-0.061 v -3.438002 l -0.120035,-0.11982 z"
       style="vector-effect:none;fill:#b3b3b3;fill-opacity:1;stroke:none;stroke-width:0.0661458;stroke-linecap:butt;stroke-linejoin:round;stroke-miterlimit:4;stroke-dasharray:none;stroke-dashoffset:0;stroke-opacity:1"
       id="path1185-6-6" /><path
       style="fill:#cccccc;fill-opacity:1;stroke:none;stroke-width:1.38756;stroke-miterlimit:4;stroke-dasharray:none;stroke-dashoffset:0;stroke-opacity:1"
       d="m 17.942524,-105.39366 a 0.64373514,0.64373514 0 0 0 -0.65521,0.62739 v 0.0184 18.998531 a 0.64373514,0.64373514 0 0 1 0,-0.0639 0.64373514,0.64373514 0 0 0 0,0.0639 v 0.0183 a 0.64373514,0.64373514 0 0 0 0.641187,0.641638 h 15.926674 a 0.64373514,0.64373514 0 0 0 0.646414,-0.636678 0.64373514,0.64373514 0 0 0 0,-0.0206 v -12.585179 0 0.5468 l -3.437884,-3.437862 H 30.76616 a 0.4413958,0.4413958 0 0 1 -0.305265,-0.12889 0.4413958,0.4413958 0 0 1 -0.129636,-0.31833 v -3.72363 z"
       id="path8563-72-3-6-7" /><path
       style="fill:#cccccc;fill-opacity:1;stroke:none;stroke-width:1.38756;stroke-miterlimit:4;stroke-dasharray:none;stroke-dashoffset:0;stroke-opacity:1"
       d="m 17.49407,-86.206089 a 0.64373514,0.64373514 0 0 0 -0.04517,0.0456 0.64373514,0.64373514 0 0 1 0.04517,-0.0456 z"
       id="path8559-2-3-74-8" /><path
       style="fill:#cccccc;fill-opacity:1;stroke:none;stroke-width:1.38756;stroke-miterlimit:4;stroke-dasharray:none;stroke-dashoffset:0;stroke-opacity:1"
       d="m 33.375712,-86.159979 a 0.64373514,0.64373514 0 0 0 -0.07486,0.1042 0.64373514,0.64373514 0 0 1 0.07486,-0.1042 z"
       id="path8557-9-0-9-4" /><path
       style="fill:#cccccc;fill-opacity:1;stroke:none;stroke-width:1.38756;stroke-miterlimit:4;stroke-dasharray:none;stroke-dashoffset:0;stroke-opacity:1"
       d="m 33.300496,-86.055669 a 0.64373514,0.64373514 0 0 0 -0.08674,0.30627 v 0.0183 a 0.64373514,0.64373514 0 0 0 0,0.055 0.64373514,0.64373514 0 0 1 0,-0.055 v -0.0183 a 0.64373514,0.64373514 0 0 1 0.08674,-0.30627 z"
       id="path8555-9-9-8-1" /><path
       style="fill:#cccccc;fill-opacity:1;stroke:none;stroke-width:1.38756;stroke-miterlimit:4;stroke-dasharray:none;stroke-dashoffset:0;stroke-opacity:1"
       d="m 33.21981,-85.651319 a 0.64373514,0.64373514 0 0 0 0,0.0395 0.64373514,0.64373514 0 0 1 0,-0.0395 z"
       id="path8553-6-2-52-7" /><path
       style="fill:#cccccc;fill-opacity:1;stroke:none;stroke-width:1.38756;stroke-miterlimit:4;stroke-dasharray:none;stroke-dashoffset:0;stroke-opacity:1"
       d="m 33.231932,-85.585609 a 0.64373514,0.64373514 0 0 0 0.01188,0.0324 0.64373514,0.64373514 0 0 1 -0.01188,-0.0324 z"
       id="path8534-0-5-8-1" /><rect
       style="fill:#cab3d2;fill-opacity:1;stroke:#8f5fa0;stroke-width:0.2;stroke-miterlimit:4;stroke-dasharray:none;stroke-dashoffset:0;stroke-opacity:1"
       id="rect8542-0-9-0-78"
       width="15.587188"
       height="6.4763651"
       x="14.938795"
       y="-94.130638"
       ry="0.95082468" /><text
       xml:space="preserve"
       style="font-style:normal;font-variant:normal;font-weight:normal;font-stretch:normal;font-size:3.09439px;line-height:1;font-family:Roboto;-inkscape-font-specification:Roboto;text-align:center;letter-spacing:0px;word-spacing:0px;text-anchor:middle;fill:#333333;fill-opacity:1;stroke:none;stroke-width:0.193429"
       x="22.759588"
       y="-89.84565"
       id="text64910-5-4-5-3-8-5-6-1-3-4-36-2-3-7"><tspan
         x="22.759588"
         y="-89.84565"
         style="font-style:normal;font-variant:normal;font-weight:900;font-stretch:normal;font-size:3.09439px;font-family:Roboto;-inkscape-font-specification:'Roboto Heavy';text-align:center;text-anchor:middle;fill:#333333;fill-opacity:1;stroke-width:0.193429"
         id="tspan12320-9-8-5-9-6-0-9-8-80-1-89-74">GFF</tspan></text><g
       id="g89"
       transform="matrix(0.89780105,0,0,0.89780105,-28.786846,-182.4016)"
       style="stroke-width:1.11383"><path
         id="rect8596-61-5"
         style="fill:#808080;stroke-width:1.76223"
         d="m 55.297913,89.99073 h 3.14409 v 1.102053 h -3.14409 z" /><path
         id="rect8596-1-32-9"
         style="fill:#808080;stroke-width:1.76223"
         d="m 55.297913,91.935539 h 3.14409 v 1.102053 h -3.14409 z" /><path
         id="rect8596-7-1-4"
         style="fill:#808080;stroke-width:1.76223"
         d="m 55.297913,93.880341 h 3.14409 v 1.102052 h -3.14409 z" /><path
         id="rect8596-5-5-6"
         style="fill:#808080;stroke-width:1.76223"
         d="m 55.297913,95.825134 h 3.14409 v 1.102053 h -3.14409 z" /><path
         id="rect8596-6-9-2"
         style="fill:#808080;stroke-width:1.76223"
         d="m 59.333378,89.958336 h 3.14409 v 1.102052 h -3.14409 z" /><path
         id="rect8596-1-3-1-2"
         style="fill:#808080;stroke-width:1.76223"
         d="m 59.333378,91.90313 h 3.14409 v 1.102052 h -3.14409 z" /><path
         id="rect8596-7-2-4-4"
         style="fill:#808080;stroke-width:1.76223"
         d="m 59.333378,93.847931 h 3.14409 v 1.102052 h -3.14409 z" /><path
         id="rect8596-5-7-9-7"
         style="fill:#808080;stroke-width:1.76223"
         d="m 59.333378,95.792725 h 3.14409 v 1.102052 h -3.14409 z" /><path
         id="rect8596-6-0-0-4"
         style="fill:#808080;stroke-width:1.76223"
         d="m 63.36882,89.990738 h 3.14409 v 1.102052 h -3.14409 z" /><path
         id="rect8596-1-3-2-7-8"
         style="fill:#808080;stroke-width:1.76223"
         d="m 63.36882,91.935539 h 3.14409 v 1.102053 h -3.14409 z" /><path
         id="rect8596-7-2-1-5-1"
         style="fill:#808080;stroke-width:1.76223"
         d="m 63.36882,93.880341 h 3.14409 v 1.102052 h -3.14409 z" /><path
         id="rect8596-5-7-3-8-2"
         style="fill:#808080;stroke-width:1.76223"
         d="m 63.36882,95.825134 h 3.14409 v 1.102053 h -3.14409 z" /></g><path
       style="fill:#cab3d2;fill-opacity:1;stroke:none;stroke-width:1.38756;stroke-miterlimit:4;stroke-dasharray:none;stroke-dashoffset:0;stroke-opacity:1"
       d="m 30.33102,-105.39366 v 3.72341 a 0.4413959,0.4413959 0 0 0 0.12964,0.31833 0.4413959,0.4413959 0 0 0 0.305142,0.12891 h 3.735673 z m 0.0808,3.47534 a 0.4413959,0.4413959 0 0 0 -0.04278,0.0767 0.4413959,0.4413959 0 0 0 -0.02733,0.0838 0.44139583,0.44139583 0 0 1 0.02733,-0.0838 0.44139583,0.44139583 0 0 1 0.04278,-0.0767 z"
       id="path8492-7-8-8-8" /><g
       id="g100"
       transform="translate(-53.546076,-183.51108)"><rect
         style="fill:#cab3d2;fill-opacity:1;stroke-width:1.32292;stroke-opacity:0"
         id="rect89"
         width="40.646805"
         height="16.02471"
         x="114.20788"
         y="95.334312"
         ry="2.0795426" /><text
         xml:space="preserve"
         style="font-style:normal;font-variant:normal;font-weight:bold;font-stretch:normal;font-size:5.58776px;line-height:1.25;font-family:'Roboto Mono';-inkscape-font-specification:'Roboto Mono Bold';text-align:start;letter-spacing:0px;text-anchor:start;fill:#333333;fill-opacity:1;stroke-width:1.32292;stroke-opacity:0"
         x="134.50809"
         y="105.41479"
         id="text90"><tspan
           style="font-style:normal;font-variant:normal;font-weight:bold;font-stretch:normal;font-family:Roboto;-inkscape-font-specification:'Roboto Bold';text-align:center;text-anchor:middle;fill:#333333;fill-opacity:1;stroke-width:1.32292"
           x="134.50809"
           y="105.41479"
           id="tspan99">Build and Load</tspan></text></g><g
       id="g103"
       transform="translate(-82.909775,-176.65852)"><rect
         style="fill:#b9d8b9;fill-opacity:1;stroke-width:1.32292;stroke-opacity:0"
         id="rect89-05"
         width="40.646805"
         height="16.02471"
         x="200.40042"
         y="45.513531"
         ry="2.0795426" /><text
         xml:space="preserve"
         style="font-style:normal;font-variant:normal;font-weight:bold;font-stretch:normal;font-size:5.58776px;line-height:1.25;font-family:'Roboto Mono';-inkscape-font-specification:'Roboto Mono Bold';text-align:start;letter-spacing:0px;text-anchor:start;fill:#333333;fill-opacity:1;stroke-width:1.32292;stroke-opacity:0"
         x="220.66789"
         y="55.594006"
         id="text90-2"><tspan
           style="font-style:normal;font-variant:normal;font-weight:bold;font-stretch:normal;font-family:Roboto;-inkscape-font-specification:'Roboto Bold';text-align:center;text-anchor:middle;fill:#333333;fill-opacity:1;stroke-width:1.32292"
           x="220.66789"
           y="55.594006"
           id="tspan99-3">Imputation</tspan></text></g><path
       d="m 87.451529,-129.23389 -0.12275,0.12004 -0.0604,0.17165 3.32719,3.3272 0.17103,-0.061 v -3.438 l -0.12003,-0.11982 z"
       style="vector-effect:none;fill:#b3b3b3;fill-opacity:1;stroke:none;stroke-width:0.0661458;stroke-linecap:butt;stroke-linejoin:round;stroke-miterlimit:4;stroke-dasharray:none;stroke-dashoffset:0;stroke-opacity:1"
       id="path1185-6-6-1-6" /><path
       style="fill:#cccccc;fill-opacity:1;stroke:none;stroke-width:1.38756;stroke-miterlimit:4;stroke-dasharray:none;stroke-dashoffset:0;stroke-opacity:1"
       d="m 74.207499,-133.28472 a 0.64373514,0.64373514 0 0 0 -0.65521,0.6274 v 0.0184 18.99853 a 0.64373514,0.64373514 0 0 1 0,-0.0639 0.64373514,0.64373514 0 0 0 0,0.0639 v 0.0183 a 0.64373514,0.64373514 0 0 0 0.64119,0.64164 h 15.92667 a 0.64373514,0.64373514 0 0 0 0.64641,-0.63668 0.64373514,0.64373514 0 0 0 0,-0.0206 v -12.58518 0 0.5468 l -3.43788,-3.43786 h -0.29755 a 0.4413958,0.4413958 0 0 1 -0.30526,-0.12889 0.4413958,0.4413958 0 0 1 -0.12964,-0.31833 v -3.72364 z"
       id="path8563-72-3-6-7-0-8" /><path
       style="fill:#cccccc;fill-opacity:1;stroke:none;stroke-width:1.38756;stroke-miterlimit:4;stroke-dasharray:none;stroke-dashoffset:0;stroke-opacity:1"
       d="m 73.759039,-114.09714 a 0.64373514,0.64373514 0 0 0 -0.0452,0.0456 0.64373514,0.64373514 0 0 1 0.0452,-0.0456 z"
       id="path8559-2-3-74-8-1-5" /><path
       style="fill:#cccccc;fill-opacity:1;stroke:none;stroke-width:1.38756;stroke-miterlimit:4;stroke-dasharray:none;stroke-dashoffset:0;stroke-opacity:1"
       d="m 89.640689,-114.05103 a 0.64373514,0.64373514 0 0 0 -0.0749,0.1042 0.64373514,0.64373514 0 0 1 0.0749,-0.1042 z"
       id="path8557-9-0-9-4-8-37" /><path
       style="fill:#cccccc;fill-opacity:1;stroke:none;stroke-width:1.38756;stroke-miterlimit:4;stroke-dasharray:none;stroke-dashoffset:0;stroke-opacity:1"
       d="m 89.565469,-113.94672 a 0.64373514,0.64373514 0 0 0 -0.0867,0.30627 v 0.0183 a 0.64373514,0.64373514 0 0 0 0,0.055 0.64373514,0.64373514 0 0 1 0,-0.055 v -0.0183 a 0.64373514,0.64373514 0 0 1 0.0867,-0.30627 z"
       id="path8555-9-9-8-1-7-6" /><path
       style="fill:#cccccc;fill-opacity:1;stroke:none;stroke-width:1.38756;stroke-miterlimit:4;stroke-dasharray:none;stroke-dashoffset:0;stroke-opacity:1"
       d="m 89.484779,-113.54237 a 0.64373514,0.64373514 0 0 0 0,0.0395 0.64373514,0.64373514 0 0 1 0,-0.0395 z"
       id="path8553-6-2-52-7-6-8" /><path
       style="fill:#cccccc;fill-opacity:1;stroke:none;stroke-width:1.38756;stroke-miterlimit:4;stroke-dasharray:none;stroke-dashoffset:0;stroke-opacity:1"
       d="m 89.496909,-113.47666 a 0.64373514,0.64373514 0 0 0 0.0119,0.0324 0.64373514,0.64373514 0 0 1 -0.0119,-0.0324 z"
       id="path8534-0-5-8-1-0-67" /><path
       style="fill:#b9d8b9;fill-opacity:1;stroke:none;stroke-width:1.38756;stroke-miterlimit:4;stroke-dasharray:none;stroke-dashoffset:0;stroke-opacity:1"
       d="m 86.595989,-133.28472 v 3.72342 a 0.4413959,0.4413959 0 0 0 0.12964,0.31833 0.4413959,0.4413959 0 0 0 0.30515,0.12891 h 3.73567 z m 0.0808,3.47535 a 0.4413959,0.4413959 0 0 0 -0.0428,0.0767 0.4413959,0.4413959 0 0 0 -0.0273,0.0838 0.44139583,0.44139583 0 0 1 0.0273,-0.0838 0.44139583,0.44139583 0 0 1 0.0428,-0.0767 z"
       id="path8492-7-8-8-8-0-1" /><rect
       style="fill:#b9d8b9;fill-opacity:1;stroke:#5ba45b;stroke-width:0.2;stroke-miterlimit:4;stroke-dasharray:none;stroke-dashoffset:0;stroke-opacity:1"
       id="rect8542-0-9-0-78-9-8"
       width="15.587188"
       height="6.4763651"
       x="71.203773"
       y="-122.0217"
       ry="0.95082468" /><text
       xml:space="preserve"
       style="font-style:normal;font-variant:normal;font-weight:normal;font-stretch:normal;font-size:3.09439px;line-height:1;font-family:Roboto;-inkscape-font-specification:Roboto;text-align:center;letter-spacing:0px;word-spacing:0px;text-anchor:middle;fill:#333333;fill-opacity:1;stroke:none;stroke-width:0.193429"
       x="79.024559"
       y="-117.73671"
       id="text64910-5-4-5-3-8-5-6-1-3-4-36-2-3-7-5-4"><tspan
         x="79.024559"
         y="-117.73671"
         style="font-style:normal;font-variant:normal;font-weight:900;font-stretch:normal;font-size:3.09439px;font-family:Roboto;-inkscape-font-specification:'Roboto Heavy';text-align:center;text-anchor:middle;fill:#333333;fill-opacity:1;stroke-width:0.193429"
         id="tspan12320-9-8-5-9-6-0-9-8-80-1-89-74-6-9">FASTQ</tspan></text><path
       style="fill:none;fill-opacity:1;stroke:#4d4d4d;stroke-width:1.5;stroke-dasharray:none;stroke-opacity:1;marker-end:url(#Triangle)"
       d="m 35.291372,-95.241593 h 6.043298 c 5.253589,0 5.109699,15.077182 10.363293,15.077182 5.253594,0 6.043297,0 6.043297,0"
       id="path229" /><path
       style="fill:none;fill-opacity:1;stroke:#4d4d4d;stroke-width:1.5;stroke-dasharray:none;stroke-opacity:1"
       d="m 35.291372,-65.087221 h 6.043298 c 5.253589,0 5.109699,-15.07719 10.363293,-15.07719 5.253593,0 6.043293,0 6.043293,0"
       id="path229-4" /><g
       id="g101"
       transform="translate(-47.609337,-180.39802)"><rect
         style="fill:#b7d3f7;fill-opacity:1;stroke-width:1.32292;stroke-opacity:0"
         id="rect89-1"
         width="40.646805"
         height="16.02471"
         x="165.09999"
         y="135.20209"
         ry="2.0795426" /><text
         xml:space="preserve"
         style="font-style:normal;font-variant:normal;font-weight:bold;font-stretch:normal;font-size:5.58776px;line-height:1.25;font-family:'Roboto Mono';-inkscape-font-specification:'Roboto Mono Bold';text-align:start;letter-spacing:0px;text-anchor:start;fill:#333333;fill-opacity:1;stroke-width:1.32292;stroke-opacity:0"
         x="185.40021"
         y="145.28256"
         id="text90-5"><tspan
           style="font-style:normal;font-variant:normal;font-weight:bold;font-stretch:normal;font-family:Roboto;-inkscape-font-specification:'Roboto Bold';text-align:center;text-anchor:middle;fill:#333333;fill-opacity:1;stroke-width:1.32292"
           x="185.40021"
           y="145.28256"
           id="tspan99-0">Resequencing</tspan></text></g><path
       d="m 87.451529,-43.284834 -0.12275,0.12004 -0.0604,0.17165 3.32719,3.327204 0.17103,-0.061 v -3.438004 l -0.12003,-0.11982 z"
       style="vector-effect:none;fill:#b3b3b3;fill-opacity:1;stroke:none;stroke-width:0.0661458;stroke-linecap:butt;stroke-linejoin:round;stroke-miterlimit:4;stroke-dasharray:none;stroke-dashoffset:0;stroke-opacity:1"
       id="path1185-6-6-1-3" /><path
       style="fill:#cccccc;fill-opacity:1;stroke:none;stroke-width:1.38756;stroke-miterlimit:4;stroke-dasharray:none;stroke-dashoffset:0;stroke-opacity:1"
       d="m 74.207499,-47.335664 a 0.64373514,0.64373514 0 0 0 -0.65521,0.6274 v 0.0184 18.998534 a 0.64373514,0.64373514 0 0 1 0,-0.0639 0.64373514,0.64373514 0 0 0 0,0.0639 v 0.0183 a 0.64373514,0.64373514 0 0 0 0.64119,0.64164 h 15.92667 a 0.64373514,0.64373514 0 0 0 0.64641,-0.63668 0.64373514,0.64373514 0 0 0 0,-0.0206 v -12.58518 0 0.5468 l -3.43788,-3.437864 h -0.29755 a 0.4413958,0.4413958 0 0 1 -0.30526,-0.12889 0.4413958,0.4413958 0 0 1 -0.12964,-0.31833 v -3.72364 z"
       id="path8563-72-3-6-7-0-7" /><path
       style="fill:#cccccc;fill-opacity:1;stroke:none;stroke-width:1.38756;stroke-miterlimit:4;stroke-dasharray:none;stroke-dashoffset:0;stroke-opacity:1"
       d="m 73.759039,-28.14808 a 0.64373514,0.64373514 0 0 0 -0.0452,0.0456 0.64373514,0.64373514 0 0 1 0.0452,-0.0456 z"
       id="path8559-2-3-74-8-1-7" /><path
       style="fill:#cccccc;fill-opacity:1;stroke:none;stroke-width:1.38756;stroke-miterlimit:4;stroke-dasharray:none;stroke-dashoffset:0;stroke-opacity:1"
       d="m 89.640689,-28.10197 a 0.64373514,0.64373514 0 0 0 -0.0749,0.1042 0.64373514,0.64373514 0 0 1 0.0749,-0.1042 z"
       id="path8557-9-0-9-4-8-3" /><path
       style="fill:#cccccc;fill-opacity:1;stroke:none;stroke-width:1.38756;stroke-miterlimit:4;stroke-dasharray:none;stroke-dashoffset:0;stroke-opacity:1"
       d="m 89.565469,-27.99766 a 0.64373514,0.64373514 0 0 0 -0.0867,0.30627 v 0.0183 a 0.64373514,0.64373514 0 0 0 0,0.055 0.64373514,0.64373514 0 0 1 0,-0.055 v -0.0183 a 0.64373514,0.64373514 0 0 1 0.0867,-0.30627 z"
       id="path8555-9-9-8-1-7-2" /><path
       style="fill:#cccccc;fill-opacity:1;stroke:none;stroke-width:1.38756;stroke-miterlimit:4;stroke-dasharray:none;stroke-dashoffset:0;stroke-opacity:1"
       d="m 89.484779,-27.59331 a 0.64373514,0.64373514 0 0 0 0,0.0395 0.64373514,0.64373514 0 0 1 0,-0.0395 z"
       id="path8553-6-2-52-7-6-5" /><path
       style="fill:#cccccc;fill-opacity:1;stroke:none;stroke-width:1.38756;stroke-miterlimit:4;stroke-dasharray:none;stroke-dashoffset:0;stroke-opacity:1"
       d="m 89.496909,-27.5276 a 0.64373514,0.64373514 0 0 0 0.0119,0.0324 0.64373514,0.64373514 0 0 1 -0.0119,-0.0324 z"
       id="path8534-0-5-8-1-0-6" /><path
       style="fill:#b7d3f7;fill-opacity:1;stroke:none;stroke-width:1.38756;stroke-miterlimit:4;stroke-dasharray:none;stroke-dashoffset:0;stroke-opacity:1"
       d="m 86.595989,-47.335664 v 3.72342 a 0.4413959,0.4413959 0 0 0 0.12964,0.31833 0.4413959,0.4413959 0 0 0 0.30515,0.12891 h 3.73567 z m 0.0808,3.47535 a 0.4413959,0.4413959 0 0 0 -0.0428,0.0767 0.4413959,0.4413959 0 0 0 -0.0273,0.0838 0.44139583,0.44139583 0 0 1 0.0273,-0.0838 0.44139583,0.44139583 0 0 1 0.0428,-0.0767 z"
       id="path8492-7-8-8-8-0-3" /><rect
       style="fill:#b7d3f7;fill-opacity:1;stroke:#557aaa;stroke-width:0.2;stroke-miterlimit:4;stroke-dasharray:none;stroke-dashoffset:0;stroke-opacity:1"
       id="rect8542-0-9-0-78-9-4"
       width="15.587188"
       height="6.4763651"
       x="71.203773"
       y="-36.072643"
       ry="0.95082468" /><text
       xml:space="preserve"
       style="font-style:normal;font-variant:normal;font-weight:normal;font-stretch:normal;font-size:3.09439px;line-height:1;font-family:Roboto;-inkscape-font-specification:Roboto;text-align:center;letter-spacing:0px;word-spacing:0px;text-anchor:middle;fill:#333333;fill-opacity:1;stroke:none;stroke-width:0.193429"
       x="79.024559"
       y="-31.787647"
       id="text64910-5-4-5-3-8-5-6-1-3-4-36-2-3-7-5-0"><tspan
         x="79.024559"
         y="-31.787647"
         style="font-style:normal;font-variant:normal;font-weight:900;font-stretch:normal;font-size:3.09439px;font-family:Roboto;-inkscape-font-specification:'Roboto Heavy';text-align:center;text-anchor:middle;fill:#333333;fill-opacity:1;stroke-width:0.193429"
         id="tspan12320-9-8-5-9-6-0-9-8-80-1-89-74-6-6">FASTQ</tspan></text><path
       style="fill:#ff00ff;fill-opacity:1;stroke:#4d4d4d;stroke-width:1.5;stroke-dasharray:none;stroke-opacity:1;marker-end:url(#Triangle)"
       d="M 91.556419,-37.18357 H 114.57023"
       id="path234" /><path
       style="fill:#ff00ff;fill-opacity:1;stroke:#4d4d4d;stroke-width:1.5;stroke-dasharray:none;stroke-opacity:1;marker-end:url(#Triangle-8)"
       d="m 102.09839,-80.16441 h 21.04529"
       id="path234-0" /><path
       style="fill:#ff00ff;fill-opacity:1;stroke:#4d4d4d;stroke-width:1.5;stroke-dasharray:none;stroke-opacity:1;marker-end:url(#Triangle-22)"
       d="M 91.556399,-123.13263 H 114.57021"
       id="path234-7" /><path
       style="fill:#ff00ff;fill-opacity:1;stroke:#4d4d4d;stroke-width:1.49999;stroke-dasharray:none;stroke-opacity:1;marker-start:url(#Triangle-5);marker-end:url(#Triangle-2-8-3)"
       d="M 137.81405,-48.110174 V -60.169391"
       id="path234-8-2-1" /><path
       style="fill:#ff00ff;fill-opacity:1;stroke:#4d4d4d;stroke-width:1.49999;stroke-dasharray:none;stroke-opacity:1;marker-start:url(#Triangle-5-5);marker-end:url(#Triangle-2-8-3-4)"
       d="m 137.81405,-100.15312 v -12.05922"
       id="path234-8-2-1-3" /><text
       xml:space="preserve"
       style="font-style:normal;font-variant:normal;font-weight:bold;font-stretch:normal;font-size:3.35272px;line-height:1.25;font-family:Roboto;-inkscape-font-specification:'Roboto Bold';text-align:center;letter-spacing:0px;text-anchor:middle;fill:#4d4d4d;fill-opacity:1;stroke:none;stroke-width:0.2;stroke-dasharray:none;stroke-opacity:1"
       x="82.150063"
       y="-109.54515"
       id="text234"><tspan
         id="tspan234"
         style="font-style:normal;font-variant:normal;font-weight:900;font-stretch:normal;font-family:Roboto;-inkscape-font-specification:'Roboto Heavy';fill:#4d4d4d;stroke:none;stroke-width:0.2"
         x="82.150063"
         y="-109.54515">(e.g., ≥ 0.1x WGS reads)</tspan></text><text
       xml:space="preserve"
       style="font-style:normal;font-variant:normal;font-weight:bold;font-stretch:normal;font-size:5.0558px;line-height:1.25;font-family:Roboto;-inkscape-font-specification:'Roboto Bold';text-align:center;letter-spacing:0px;text-anchor:middle;fill:#808080;fill-opacity:1;stroke:none;stroke-width:0.129999;stroke-dasharray:none;stroke-opacity:1"
       x="20.902277"
       y="-69.14994"
       id="text234-35-5"><tspan
         id="tspan234-1-8"
         style="font-style:normal;font-variant:normal;font-weight:bold;font-stretch:normal;font-family:'Roboto Mono';-inkscape-font-specification:'Roboto Mono Bold';fill:#808080;fill-opacity:1;stroke:none;stroke-width:0.129999;stroke-dasharray:none;stroke-opacity:1"
         x="20.902277"
         y="-69.14994">&gt;</tspan></text><text
       xml:space="preserve"
       style="font-style:normal;font-variant:normal;font-weight:bold;font-stretch:normal;font-size:3.35272px;line-height:1.25;font-family:Roboto;-inkscape-font-specification:'Roboto Bold';text-align:center;letter-spacing:0px;text-anchor:middle;fill:#4d4d4d;fill-opacity:1;stroke:none;stroke-width:0.2;stroke-dasharray:none;stroke-opacity:1"
       x="137.80504"
       y="-88.876358"
       id="text234-7"><tspan
         id="tspan234-4"
         style="font-style:normal;font-variant:normal;font-weight:900;font-stretch:normal;font-family:Roboto;-inkscape-font-specification:'Roboto Heavy';fill:#4d4d4d;stroke:none;stroke-width:0.2"
         x="137.80504"
         y="-88.876358">(VCF Arrays)</tspan></text><text
       xml:space="preserve"
       style="font-style:normal;font-variant:normal;font-weight:bold;font-stretch:normal;font-size:2.72353px;line-height:1.25;font-family:Roboto;-inkscape-font-specification:'Roboto Bold';text-align:center;letter-spacing:0px;text-anchor:middle;fill:#4d4d4d;fill-opacity:1;stroke:none;stroke-width:0.2;stroke-dasharray:none;stroke-opacity:1"
       x="137.82947"
       y="-68.875359"
       id="text234-7-2"><tspan
         id="tspan234-4-7"
         style="font-style:normal;font-variant:normal;font-weight:900;font-stretch:normal;font-family:Roboto;-inkscape-font-specification:'Roboto Heavy';fill:#f9f9f9;stroke:none;stroke-width:0.2"
         x="137.82947"
         y="-68.875359">AGC sequence</tspan><tspan
         style="font-style:normal;font-variant:normal;font-weight:900;font-stretch:normal;font-family:Roboto;-inkscape-font-specification:'Roboto Heavy';fill:#f9f9f9;stroke:none;stroke-width:0.2"
         x="137.82947"
         y="-65.470947"
         id="tspan245">compression</tspan></text><path
       style="fill:#cccccc;fill-opacity:1;stroke:none;stroke-width:1.38756;stroke-miterlimit:4;stroke-dasharray:none;stroke-dashoffset:0;stroke-opacity:1"
       d="m 82.181669,-24.90112 a 0.64373514,0.64373514 0 0 0 -0.0452,0.0456 0.64373514,0.64373514 0 0 1 0.0452,-0.0456 z"
       id="path8559-2-3-74-8-1-5-9" /><path
       style="fill:#cccccc;fill-opacity:1;stroke:none;stroke-width:1.38756;stroke-miterlimit:4;stroke-dasharray:none;stroke-dashoffset:0;stroke-opacity:1"
       d="m 82.196519,-24.85501 a 0.64373514,0.64373514 0 0 0 -0.0749,0.1042 0.64373514,0.64373514 0 0 1 0.0749,-0.1042 z"
       id="path8557-9-0-9-4-8-37-6" /><path
       style="fill:#cccccc;fill-opacity:1;stroke:none;stroke-width:1.38756;stroke-miterlimit:4;stroke-dasharray:none;stroke-dashoffset:0;stroke-opacity:1"
       d="m 82.202709,-24.7507 a 0.64373514,0.64373514 0 0 0 -0.0867,0.30627 v 0.0183 a 0.64373514,0.64373514 0 0 0 0,0.055 0.64373514,0.64373514 0 0 1 0,-0.055 v -0.0183 a 0.64373514,0.64373514 0 0 1 0.0867,-0.30627 z"
       id="path8555-9-9-8-1-7-6-0" /><path
       style="fill:#cccccc;fill-opacity:1;stroke:none;stroke-width:1.38756;stroke-miterlimit:4;stroke-dasharray:none;stroke-dashoffset:0;stroke-opacity:1"
       d="m 82.159219,-24.34635 a 0.64373514,0.64373514 0 0 0 0,0.0395 0.64373514,0.64373514 0 0 1 0,-0.0395 z"
       id="path8553-6-2-52-7-6-8-1" /><path
       style="fill:#cccccc;fill-opacity:1;stroke:none;stroke-width:1.38756;stroke-miterlimit:4;stroke-dasharray:none;stroke-dashoffset:0;stroke-opacity:1"
       d="m 82.153119,-24.28064 a 0.64373514,0.64373514 0 0 0 0.0119,0.0324 0.64373514,0.64373514 0 0 1 -0.0119,-0.0324 z"
       id="path8534-0-5-8-1-0-67-2" /><text
       xml:space="preserve"
       style="font-style:normal;font-variant:normal;font-weight:bold;font-stretch:normal;font-size:3.35272px;line-height:1.25;font-family:Roboto;-inkscape-font-specification:'Roboto Bold';text-align:center;letter-spacing:0px;text-anchor:middle;fill:#4d4d4d;fill-opacity:1;stroke:none;stroke-width:0.2;stroke-dasharray:none;stroke-opacity:1"
       x="82.150063"
       y="-23.596111"
       id="text234-3"><tspan
         id="tspan234-2"
         style="font-style:normal;font-variant:normal;font-weight:900;font-stretch:normal;font-family:Roboto;-inkscape-font-specification:'Roboto Heavy';fill:#4d4d4d;stroke:none;stroke-width:0.2"
         x="82.150063"
         y="-23.596111">(e.g., ≥ 4x WGS reads)</tspan></text><text
       xml:space="preserve"
       style="font-style:normal;font-variant:normal;font-weight:bold;font-stretch:normal;font-size:3.35272px;line-height:1.25;font-family:Roboto;-inkscape-font-specification:'Roboto Bold';text-align:center;letter-spacing:0px;text-anchor:middle;fill:#4d4d4d;fill-opacity:1;stroke:none;stroke-width:0.2;stroke-dasharray:none;stroke-opacity:1"
       x="25.885092"
       y="-51.49976"
       id="text234-3-4"><tspan
         id="tspan234-2-1"
         style="font-style:normal;font-variant:normal;font-weight:900;font-stretch:normal;font-family:Roboto;-inkscape-font-specification:'Roboto Heavy';fill:#4d4d4d;stroke:none;stroke-width:0.2"
         x="25.885092"
         y="-51.49976">(high quality assemblies)</tspan></text><text
       xml:space="preserve"
       style="font-style:normal;font-variant:normal;font-weight:bold;font-stretch:normal;font-size:3.35272px;line-height:1.25;font-family:Roboto;-inkscape-font-specification:'Roboto Bold';text-align:center;letter-spacing:0px;text-anchor:middle;fill:#4d4d4d;fill-opacity:1;stroke:none;stroke-width:0.2;stroke-dasharray:none;stroke-opacity:1"
       x="25.885092"
       y="-81.654114"
       id="text234-3-4-2"><tspan
         id="tspan234-2-1-6"
         style="font-style:normal;font-variant:normal;font-weight:900;font-stretch:normal;font-family:Roboto;-inkscape-font-specification:'Roboto Heavy';fill:#4d4d4d;stroke:none;stroke-width:0.2"
         x="25.885092"
         y="-81.654114">(reference coordinates)</tspan></text><g
       id="g106"
       transform="matrix(0.65200678,0,0,0.65200678,13.926202,-142.085)"
       style="stroke-width:1.53372"><path
         style="color:#000000;font-style:normal;font-variant:normal;font-weight:normal;font-stretch:normal;font-size:medium;line-height:normal;font-family:sans-serif;font-variant-ligatures:normal;font-variant-position:normal;font-variant-caps:normal;font-variant-numeric:normal;font-variant-alternates:normal;font-feature-settings:normal;text-indent:0;text-align:start;text-decoration:none;text-decoration-line:none;text-decoration-style:solid;text-decoration-color:#000000;letter-spacing:normal;word-spacing:normal;text-transform:none;writing-mode:lr-tb;direction:ltr;text-orientation:mixed;dominant-baseline:auto;baseline-shift:baseline;text-anchor:start;white-space:normal;shape-padding:0;clip-rule:nonzero;display:inline;overflow:visible;visibility:visible;isolation:auto;mix-blend-mode:normal;color-interpolation:sRGB;color-interpolation-filters:linearRGB;solid-color:#000000;solid-opacity:1;vector-effect:none;fill:#cad9f1;fill-opacity:1;fill-rule:nonzero;stroke:none;stroke-width:0.588326;stroke-linecap:butt;stroke-linejoin:miter;stroke-miterlimit:4;stroke-dasharray:none;stroke-dashoffset:0;stroke-opacity:1;color-rendering:auto;image-rendering:auto;shape-rendering:auto;text-rendering:auto;enable-background:accumulate"
         d="m 266.43796,114.69475 a 1.0802099,1.0802099 0 0 0 -1.05267,-1.10381 l -0.0136,-2.6e-4 a 1.0802099,1.0802099 0 0 0 -1.09377,1.06304 1.0802099,1.0802099 0 0 0 1.05955,1.09711 1.0802099,1.0802099 0 0 0 1.10047,-1.05607 z m -0.004,3.42218 a 1.0759738,1.0759738 0 0 0 -1.04852,-1.09942 l -0.0135,-2.5e-4 a 1.0759738,1.0759738 0 0 0 -1.08957,1.05883 1.0759738,1.0759738 0 0 0 1.05542,1.09285 1.0759738,1.0759738 0 0 0 1.09613,-1.052 z m 0,3.42278 a 1.0759738,1.0759738 0 0 0 -1.04852,-1.09942 l -0.0135,-2.6e-4 a 1.0759738,1.0759738 0 0 0 -1.08957,1.05883 1.0759738,1.0759738 0 0 0 1.05542,1.09285 1.0759738,1.0759738 0 0 0 1.09613,-1.052 z m -1.01214,-5.6664 c -0.0289,0.002 -0.0577,0.003 -0.0866,0.002 -0.0135,-2.5e-4 -0.027,-9.5e-4 -0.0405,-0.002 v 1.01844 c 0.0262,-0.002 0.0524,-0.003 0.0787,-0.002 a 0.12732894,0.12732894 0 0 1 6.3e-4,0 l 0.0137,2.6e-4 a 0.12732894,0.12732894 0 0 1 9.5e-4,0 c 0.011,2.5e-4 0.022,9.5e-4 0.0331,0.002 z m 0,3.42106 c -0.0287,0.002 -0.0576,0.003 -0.0864,0.002 -0.0136,-2.6e-4 -0.0271,-9.6e-4 -0.0407,-0.002 v 1.02028 c 0.0262,-0.002 0.0524,-0.003 0.0787,-0.002 a 0.12732894,0.12732894 0 0 1 6.3e-4,0 l 0.0136,2.6e-4 a 0.12732894,0.12732894 0 0 1 9.5e-4,0 c 0.011,2.6e-4 0.022,9.5e-4 0.0331,0.002 z m -0.86779,3.11569 c -0.021,-0.0188 -0.0414,-0.038 -0.061,-0.0583 -0.01,-0.0102 -0.0194,-0.0209 -0.0289,-0.0315 l -1.72244,1.72284 c 0.0229,0.0205 0.0452,0.0416 0.0664,0.0639 0.008,0.008 0.0157,0.0171 0.0235,0.0258 z m -2.6e-4,-5.21142 -0.81683,-0.81703 0.81598,-0.81585 c -0.021,-0.0188 -0.0416,-0.038 -0.0611,-0.0583 -0.01,-0.0102 -0.0193,-0.0208 -0.0288,-0.0314 l -0.81584,0.81572 -0.46286,-0.46305 1.12753,-0.56381 c -0.0208,-0.0369 -0.0396,-0.0749 -0.0565,-0.11373 l -1.16575,0.5829 -0.25822,-0.25835 c -0.0196,0.0219 -0.0397,0.0433 -0.0609,0.0636 -0.009,0.009 -0.0192,0.0176 -0.0288,0.0263 l 0.22814,0.22827 -0.97005,0.48506 v -0.40625 c -0.0287,0.002 -0.0575,0.003 -0.0863,0.002 -0.0136,-2.5e-4 -0.0271,-9.6e-4 -0.0407,-0.002 v 0.40658 l -0.97057,-0.48525 0.22886,-0.22887 c -0.021,-0.0188 -0.0415,-0.038 -0.061,-0.0583 -0.01,-0.0102 -0.0195,-0.0209 -0.029,-0.0315 l -0.25875,0.25875 -1.16719,-0.58357 c -0.0169,0.0389 -0.0358,0.0768 -0.0566,0.11375 l 1.1291,0.56452 -0.46338,0.46331 -0.8169,-0.81689 c -0.0196,0.0219 -0.0399,0.0434 -0.0611,0.0638 -0.009,0.009 -0.019,0.0175 -0.0286,0.0261 l 0.81683,0.81683 -0.81709,0.81703 c 0.0229,0.0205 0.0452,0.0416 0.0664,0.0638 0.008,0.008 0.0157,0.0172 0.0235,0.026 l 0.81703,-0.81697 0.46325,0.46319 -1.12903,0.56452 c 0.0208,0.0369 0.0395,0.075 0.0564,0.11388 l 1.16732,-0.5837 0.25934,0.25934 c 0.0181,-0.0203 0.0366,-0.0401 0.0561,-0.059 0.0109,-0.0107 0.0222,-0.0208 0.0335,-0.031 l -0.2292,-0.22919 0.97077,-0.48538 v 0.40703 c 0.0262,-0.002 0.0524,-0.003 0.0787,-0.002 a 0.12755295,0.12755295 0 0 1 6.3e-4,0 l 0.0137,2.6e-4 a 0.12755295,0.12755295 0 0 1 9.5e-4,0 c 0.011,2.5e-4 0.022,9.5e-4 0.033,0.002 v -0.40658 l 0.96946,0.48466 -0.22873,0.22868 c 0.023,0.0206 0.0454,0.0418 0.0667,0.0642 0.008,0.008 0.0156,0.0171 0.0232,0.0256 l 0.25855,-0.25855 1.16733,0.58356 c 0.0169,-0.0388 0.0359,-0.0767 0.0567,-0.11361 l -1.12937,-0.56465 0.46345,-0.46339 0.8169,0.81717 c 0.0179,-0.02 0.0363,-0.0396 0.0555,-0.0584 0.0112,-0.0108 0.0226,-0.0212 0.0342,-0.0316 z m 0,1.78858 c -0.021,-0.0187 -0.0415,-0.038 -0.061,-0.0582 -0.01,-0.0102 -0.0195,-0.0209 -0.029,-0.0315 l -0.81696,0.81729 -0.46351,-0.46352 1.12943,-0.56464 c -0.0208,-0.0369 -0.0396,-0.075 -0.0565,-0.11388 l -1.16765,0.58383 -0.25836,-0.25836 c -0.0195,0.0218 -0.0395,0.043 -0.0606,0.0632 -0.01,0.009 -0.0194,0.0179 -0.0292,0.0266 l 0.22834,0.22834 -0.96912,0.48453 v -0.40638 c -0.0288,0.002 -0.0575,0.003 -0.0864,0.002 -0.0136,-2.5e-4 -0.0271,-9.5e-4 -0.0407,-0.002 v 0.40757 l -0.97116,-0.48559 0.22972,-0.22972 c -0.0208,-0.0186 -0.0411,-0.0377 -0.0605,-0.0578 -0.0101,-0.0104 -0.0197,-0.0212 -0.0294,-0.0321 l -0.25966,0.25966 -1.16687,-0.58337 c -0.0169,0.0389 -0.0359,0.0768 -0.0567,0.11375 l 1.12891,0.56432 -0.46299,0.46293 -0.81684,-0.81657 c -0.0196,0.022 -0.0399,0.0434 -0.0612,0.0639 -0.009,0.009 -0.019,0.0175 -0.0286,0.0261 l 0.81676,0.81644 -0.81663,0.81656 c 0.0229,0.0205 0.0452,0.0416 0.0664,0.0638 0.008,0.008 0.0158,0.0173 0.0236,0.026 l 0.81657,-0.81651 0.46325,0.46306 -1.12851,0.56419 c 0.0208,0.0369 0.0395,0.075 0.0564,0.11387 l 1.1668,-0.58336 0.25842,0.25835 c 0.018,-0.0202 0.0365,-0.0399 0.0559,-0.0587 0.011,-0.0107 0.0224,-0.0211 0.0338,-0.0312 l -0.22828,-0.22828 0.97084,-0.48538 v 0.40612 c 0.0263,-0.002 0.0526,-0.003 0.0789,-0.002 a 0.12946078,0.12946078 0 0 1 2.9e-4,0 l 0.0137,2.6e-4 a 0.12946078,0.12946078 0 0 1 9.5e-4,0 c 0.011,2.5e-4 0.022,9.5e-4 0.033,0.002 v -0.40479 l 0.96958,0.48472 -0.22735,0.22742 c 0.023,0.0205 0.0454,0.0417 0.0667,0.064 0.008,0.008 0.0155,0.0171 0.0232,0.0256 l 0.25717,-0.25724 1.16719,0.58344 c 0.0169,-0.0388 0.0359,-0.0767 0.0567,-0.11362 l -1.12923,-0.56458 0.46312,-0.46325 0.8171,0.81709 c 0.0179,-0.0201 0.0363,-0.0397 0.0555,-0.0585 0.0111,-0.0108 0.0226,-0.0212 0.0341,-0.0315 l -0.81703,-0.81697 z m -6.3e-4,-5.21162 -1.72272,-1.72284 c -0.0196,0.0219 -0.0397,0.0433 -0.0609,0.0636 -0.009,0.009 -0.0192,0.0176 -0.0289,0.0263 l 1.72271,1.72284 c 0.0179,-0.02 0.0363,-0.0396 0.0556,-0.0583 0.0112,-0.0109 0.0226,-0.0212 0.0342,-0.0316 z m -0.99579,2.60601 -0.4934,0.49332 -0.98607,-0.493 0.98667,-0.49332 z m -2.6e-4,3.42297 -0.49306,0.49326 -0.98699,-0.49346 0.98653,-0.49327 z m -0.54514,-8.5326 a 1.0759738,1.0759738 0 0 0 -1.04839,-1.09935 l -0.0136,-2.6e-4 a 1.0759738,1.0759738 0 0 0 -1.08944,1.0589 1.0759738,1.0759738 0 0 0 1.05542,1.09286 1.0759738,1.0759738 0 0 0 1.09607,-1.05214 z m 0,3.42199 a 1.0759738,1.0759738 0 0 0 -1.04839,-1.09936 l -0.0136,-2.6e-4 a 1.0759738,1.0759738 0 0 0 -1.08944,1.0589 1.0759738,1.0759738 0 0 0 1.05542,1.09286 1.0759738,1.0759738 0 0 0 1.09607,-1.05214 z m 0,3.42283 a 1.0759738,1.0759738 0 0 0 -1.04839,-1.09936 l -0.0136,-2.5e-4 a 1.0759738,1.0759738 0 0 0 -1.08944,1.0589 1.0759738,1.0759738 0 0 0 1.05542,1.09285 1.0759738,1.0759738 0 0 0 1.09607,-1.05213 z m 0,3.42277 a 1.0759738,1.0759738 0 0 0 -1.04839,-1.09935 l -0.0136,-2.6e-4 a 1.0759738,1.0759738 0 0 0 -1.08944,1.05883 1.0759738,1.0759738 0 0 0 1.05542,1.09286 1.0759738,1.0759738 0 0 0 1.09607,-1.05214 z m 0,3.42284 a 1.0759738,1.0759738 0 0 0 -1.04839,-1.09929 l -0.0136,-2.5e-4 a 1.0759738,1.0759738 0 0 0 -1.08944,1.05883 1.0759738,1.0759738 0 0 0 1.05542,1.09285 1.0759738,1.0759738 0 0 0 1.09607,-1.05213 z m -1.0122,-12.51292 c -0.0287,0.002 -0.0575,0.003 -0.0864,0.002 -0.0136,-2.4e-4 -0.0271,-9.5e-4 -0.0407,-0.002 v 1.01818 c 0.0263,-0.002 0.0526,-0.003 0.0789,-0.002 a 0.12854397,0.12854397 0 0 1 3e-4,0 l 0.0137,2.5e-4 a 0.12854397,0.12854397 0 0 1 9.5e-4,0 c 0.011,2.6e-4 0.022,9.6e-4 0.033,0.002 z m 0,10.26962 c -0.0287,0.002 -0.0575,0.003 -0.0864,0.002 -0.0136,-2.6e-4 -0.0271,-9.6e-4 -0.0407,-0.002 v 1.0166 c 0.0263,-0.002 0.0526,-0.003 0.0789,-0.002 a 0.12900175,0.12900175 0 0 1 3e-4,0 l 0.0137,2.5e-4 a 0.12900175,0.12900175 0 0 1 9.5e-4,0 c 0.011,2.6e-4 0.022,9.6e-4 0.033,0.002 z m -0.20595,-6.33718 -0.98659,0.49334 -0.49313,-0.49313 0.49333,-0.49327 z m -9.5e-4,3.42245 -0.9858,0.49287 -0.4932,-0.493 0.49293,-0.49287 z m -0.66118,-7.66192 c -0.0209,-0.0187 -0.0414,-0.0379 -0.0609,-0.0581 -0.01,-0.0103 -0.0195,-0.021 -0.029,-0.0316 l -1.72436,1.72377 c 0.0228,0.0204 0.0451,0.0415 0.0663,0.0637 0.008,0.009 0.0158,0.0173 0.0237,0.026 z m -9.6e-4,11.90073 -1.7233,-1.72317 c -0.0196,0.022 -0.0399,0.0434 -0.0611,0.0638 -0.009,0.009 -0.019,0.0175 -0.0286,0.0261 l 1.72331,1.72317 c 0.018,-0.0201 0.0364,-0.0398 0.0557,-0.0586 0.0111,-0.0108 0.0226,-0.0211 0.034,-0.0314 z m -1.54211,-9.34857 a 1.0759738,1.0759738 0 0 0 -1.04852,-1.09942 l -0.0136,-2.5e-4 a 1.0759738,1.0759738 0 0 0 -1.0895,1.05883 1.0759738,1.0759738 0 0 0 1.05542,1.09285 1.0759738,1.0759738 0 0 0 1.09614,-1.052 z m 0,3.42277 a 1.0759738,1.0759738 0 0 0 -1.04852,-1.09942 l -0.0136,-2.5e-4 a 1.0759738,1.0759738 0 0 0 -1.0895,1.05883 1.0759738,1.0759738 0 0 0 1.05542,1.09285 1.0759738,1.0759738 0 0 0 1.09614,-1.052 z m 0,3.42172 a 1.0759738,1.0759738 0 0 0 -1.04852,-1.09948 l -0.0136,-2.5e-4 a 1.0759738,1.0759738 0 0 0 -1.0895,1.05883 1.0759738,1.0759738 0 0 0 1.05542,1.09285 1.0759738,1.0759738 0 0 0 1.09614,-1.05193 z m -1.01227,-5.66679 c -0.0288,0.002 -0.0575,0.003 -0.0864,0.002 -0.0136,-2.6e-4 -0.0271,-9.6e-4 -0.0407,-0.002 v 1.02002 c 0.0262,-0.002 0.0524,-0.003 0.0787,-0.002 a 0.12742567,0.12742567 0 0 1 6.3e-4,0 l 0.0137,2.6e-4 a 0.12742567,0.12742567 0 0 1 9.5e-4,0 c 0.011,2.5e-4 0.022,9.5e-4 0.033,0.002 z m 0,3.42231 c -0.0288,0.002 -0.0575,0.003 -0.0864,0.002 -0.0136,-2.6e-4 -0.0271,-9.6e-4 -0.0407,-0.002 v 1.01877 c 0.0262,-0.002 0.0524,-0.003 0.0787,-0.002 a 0.12789015,0.12789015 0 0 1 6.3e-4,0 l 0.0137,2.6e-4 a 0.12789015,0.12789015 0 0 1 9.5e-4,0 c 0.011,2.5e-4 0.022,9.5e-4 0.033,0.002 z"
         id="path4684" /><path
         id="path4216"
         d="m 261.93749,105.95068 -10.51598,6.07144 v 12.14279 l 10.51598,6.07144 10.51601,-6.07144 v -12.14279 z m 0,2.4029 8.43503,4.86997 v 9.73993 l -8.43503,4.86997 -8.43505,-4.86997 v -9.73993 z"
         style="fill:#d35f5f;fill-opacity:1;stroke:none;stroke-width:0.0586504;stroke-linecap:butt;stroke-linejoin:bevel;stroke-miterlimit:4;stroke-dasharray:0.117301, 0.0586504;stroke-dashoffset:0;stroke-opacity:1" /><path
         id="path4289"
         style="font-style:normal;font-variant:normal;font-weight:bold;font-stretch:normal;font-size:21.9407px;line-height:125%;font-family:'Bebas Neue';-inkscape-font-specification:'Bebas Neue Bold';letter-spacing:0px;word-spacing:0px;fill:#d35f5f;fill-opacity:1;stroke:none;stroke-width:0.0229409px;stroke-linecap:butt;stroke-linejoin:miter;stroke-opacity:1"
         d="m 259.15768,120.38848 c -0.0721,-0.17048 -0.0787,-0.33441 -0.0787,-0.55735 v -0.70816 c 0,-0.47866 -0.11803,-0.82619 -0.47867,-0.977 0.3213,-0.15081 0.47211,-0.45899 0.47211,-0.9311 v -0.36063 c 0,-0.70817 -0.3213,-1.05569 -1.0688,-1.05569 h -1.08847 v 4.58993 h 0.72127 v -1.86876 h 0.24917 c 0.32786,0 0.47211,0.15737 0.47211,0.58358 v 0.72127 c 0,0.37376 0.0262,0.44589 0.0656,0.56391 z m -1.17371,-3.93422 c 0.25572,0 0.36719,0.14425 0.36719,0.4721 v 0.45244 c 0,0.36719 -0.16392,0.48522 -0.43276,0.48522 h -0.28196 v -1.40976 z" /><path
         id="path4291"
         style="font-style:normal;font-variant:normal;font-weight:bold;font-stretch:normal;font-size:21.9407px;line-height:125%;font-family:'Bebas Neue';-inkscape-font-specification:'Bebas Neue Bold';letter-spacing:0px;word-spacing:0px;fill:#333333;fill-opacity:1;stroke:none;stroke-width:0.0229409px;stroke-linecap:butt;stroke-linejoin:miter;stroke-opacity:1"
         d="m 260.6156,115.79855 h -1.06224 v 4.58993 h 0.72127 v -1.7245 h 0.34097 c 0.72127,0 1.07535,-0.39998 1.07535,-1.13437 v -0.59669 c 0,-0.73439 -0.35408,-1.13437 -1.07535,-1.13437 z m 0,0.65571 c 0.22949,0 0.35408,0.10491 0.35408,0.43276 v 0.68849 c 0,0.32785 -0.12459,0.43276 -0.35408,0.43276 h -0.34097 v -1.55401 z" /><path
         id="path4293"
         style="font-style:normal;font-variant:normal;font-weight:bold;font-stretch:normal;font-size:21.9407px;line-height:125%;font-family:'Bebas Neue';-inkscape-font-specification:'Bebas Neue Bold';letter-spacing:0px;word-spacing:0px;fill:#333333;fill-opacity:1;stroke:none;stroke-width:0.0229409px;stroke-linecap:butt;stroke-linejoin:miter;stroke-opacity:1"
         d="m 262.78475,118.42137 h 0.81963 v 1.96711 h 0.73439 v -4.58993 h -0.73439 v 1.96711 h -0.81963 v -1.96711 h -0.72128 v 4.58993 h 0.72128 z" /><path
         id="path4295"
         style="font-style:normal;font-variant:normal;font-weight:bold;font-stretch:normal;font-size:21.9407px;line-height:125%;font-family:'Bebas Neue';-inkscape-font-specification:'Bebas Neue Bold';letter-spacing:0px;word-spacing:0px;fill:#333333;fill-opacity:1;stroke:none;stroke-width:0.0229409px;stroke-linecap:butt;stroke-linejoin:miter;stroke-opacity:1"
         d="m 265.95006,118.48694 h 0.32785 v 0.84586 c 0,0.32785 -0.14425,0.44588 -0.37375,0.44588 -0.2295,0 -0.37375,-0.11803 -0.37375,-0.44588 v -2.47856 c 0,-0.32786 0.14425,-0.45244 0.37375,-0.45244 0.2295,0 0.37375,0.12458 0.37375,0.45244 v 0.49177 h 0.68194 v -0.44588 c 0,-0.73439 -0.3672,-1.15403 -1.07536,-1.15403 -0.70816,0 -1.07536,0.41964 -1.07536,1.15403 v 2.38676 c 0,0.7344 0.3672,1.15405 1.07536,1.15405 0.70816,0 1.07536,-0.41965 1.07536,-1.15405 v -1.45566 h -1.00979 z" /></g><path
       style="fill:#ff00ff;fill-opacity:1;stroke:#4d4d4d;stroke-width:1.49999;stroke-dasharray:none;stroke-opacity:1;marker-start:url(#Triangle);marker-end:url(#Triangle-2-8)"
       d="M 184.71124,-75.924854 V -85.3296"
       id="path234-8-2" /><text
       xml:space="preserve"
       style="font-style:normal;font-variant:normal;font-weight:bold;font-stretch:normal;font-size:3.35272px;line-height:1.25;font-family:Roboto;-inkscape-font-specification:'Roboto Bold';text-align:center;letter-spacing:0px;text-anchor:middle;fill:#4d4d4d;fill-opacity:1;stroke:none;stroke-width:0.2;stroke-dasharray:none;stroke-opacity:1"
       x="184.70206"
       y="-53.73473"
       id="text234-7-0-4"><tspan
         id="tspan234-4-2-9"
         style="font-style:normal;font-variant:normal;font-weight:900;font-stretch:normal;font-family:Roboto;-inkscape-font-specification:'Roboto Heavy';fill:#4d4d4d;stroke:none;stroke-width:0.2"
         x="184.70206"
         y="-53.73473">(R interface)</tspan></text><g
       id="g243"
       transform="translate(-35.990451,-155.66327)"><path
         style="fill:none;fill-opacity:1;stroke:#4d4d4d;stroke-width:1.5;stroke-dasharray:none;stroke-opacity:1;marker-start:url(#Triangle);marker-end:url(#Triangle-9)"
         d="m 210.92475,60.421675 h -6.0433 c -5.25359,0 -5.1097,15.07718 -10.36329,15.07718 -5.2536,0 -6.0433,0 -6.0433,0"
         id="path229-0" /><path
         style="fill:none;fill-opacity:1;stroke:#4d4d4d;stroke-width:1.5;stroke-dasharray:none;stroke-opacity:1;marker-start:url(#Triangle)"
         d="m 210.92475,90.576045 h -6.0433 c -5.25359,0 -5.1097,-15.07719 -10.36329,-15.07719 -5.2536,0 -6.0433,0 -6.0433,0"
         id="path229-4-6" /></g><g
       id="g244"
       transform="translate(-35.990451,-155.64654)"><rect
         style="fill:#cccccc;fill-opacity:1;stroke:none;stroke-width:1.14531;stroke-dasharray:2.29061, 1.14531;stroke-opacity:1;paint-order:stroke fill markers"
         id="rect50171-44"
         width="13.712678"
         height="3.1689551"
         x="213.84518"
         y="53.446819"
         ry="0.32137895" /><ellipse
         style="fill:#4d4d4d;fill-opacity:1;stroke:none;stroke-width:1.14531;stroke-dasharray:2.29061, 1.14531;stroke-opacity:1;paint-order:stroke fill markers"
         id="path50273-9"
         cx="226.51901"
         cy="55.0313"
         rx="0.49344867"
         ry="0.49136031" /><rect
         style="fill:#4d4d4d;fill-opacity:1;stroke:none;stroke-width:1.14531;stroke-dasharray:2.29061, 1.14531;stroke-opacity:1;paint-order:stroke fill markers"
         id="rect50375-7"
         width="2.5451562"
         height="0.31033283"
         x="214.39058"
         y="54.50713"
         ry="0.045256868" /><rect
         style="fill:#4d4d4d;fill-opacity:1;stroke:none;stroke-width:1.14531;stroke-dasharray:2.29061, 1.14531;stroke-opacity:1;paint-order:stroke fill markers"
         id="rect50375-3-38"
         width="2.5451562"
         height="0.31033283"
         x="214.39058"
         y="55.245144"
         ry="0.045256868" /><rect
         style="fill:#cccccc;fill-opacity:1;stroke:none;stroke-width:1.14531;stroke-dasharray:2.29061, 1.14531;stroke-opacity:1;paint-order:stroke fill markers"
         id="rect50171-4-9"
         width="13.712678"
         height="3.1689551"
         x="213.84518"
         y="57.040401"
         ry="0.32137895" /><ellipse
         style="fill:#4d4d4d;fill-opacity:1;stroke:none;stroke-width:1.14531;stroke-dasharray:2.29061, 1.14531;stroke-opacity:1;paint-order:stroke fill markers"
         id="path50273-1-6"
         cx="226.51901"
         cy="58.624882"
         rx="0.49344867"
         ry="0.49136031" /><rect
         style="fill:#4d4d4d;fill-opacity:1;stroke:none;stroke-width:1.14531;stroke-dasharray:2.29061, 1.14531;stroke-opacity:1;paint-order:stroke fill markers"
         id="rect50375-5-4"
         width="2.5451562"
         height="0.31033283"
         x="214.39058"
         y="58.100712"
         ry="0.045256868" /><rect
         style="fill:#4d4d4d;fill-opacity:1;stroke:none;stroke-width:1.14531;stroke-dasharray:2.29061, 1.14531;stroke-opacity:1;paint-order:stroke fill markers"
         id="rect50375-3-9-8"
         width="2.5451562"
         height="0.31033283"
         x="214.39058"
         y="58.838711"
         ry="0.045256868" /><rect
         style="fill:#cccccc;fill-opacity:1;stroke:none;stroke-width:1.14531;stroke-dasharray:2.29061, 1.14531;stroke-opacity:1;paint-order:stroke fill markers"
         id="rect50171-5-3"
         width="13.712678"
         height="3.1689551"
         x="213.84518"
         y="60.633991"
         ry="0.32137895" /><ellipse
         style="fill:#4d4d4d;fill-opacity:1;stroke:none;stroke-width:1.14531;stroke-dasharray:2.29061, 1.14531;stroke-opacity:1;paint-order:stroke fill markers"
         id="path50273-4-0"
         cx="226.51901"
         cy="62.218464"
         rx="0.49344867"
         ry="0.49136031" /><rect
         style="fill:#4d4d4d;fill-opacity:1;stroke:none;stroke-width:1.14531;stroke-dasharray:2.29061, 1.14531;stroke-opacity:1;paint-order:stroke fill markers"
         id="rect50375-0-8"
         width="2.5451562"
         height="0.31033283"
         x="214.39058"
         y="61.694286"
         ry="0.045256868" /><rect
         style="fill:#4d4d4d;fill-opacity:1;stroke:none;stroke-width:1.14531;stroke-dasharray:2.29061, 1.14531;stroke-opacity:1;paint-order:stroke fill markers"
         id="rect50375-3-5-0"
         width="2.5451562"
         height="0.31033283"
         x="214.39058"
         y="62.432316"
         ry="0.045256868" /><rect
         style="fill:#cccccc;fill-opacity:1;stroke:none;stroke-width:1.14531;stroke-dasharray:2.29061, 1.14531;stroke-opacity:1;paint-order:stroke fill markers"
         id="rect50171-49-0"
         width="13.712678"
         height="3.1689551"
         x="213.84518"
         y="64.22757"
         ry="0.32137895" /><ellipse
         style="fill:#4d4d4d;fill-opacity:1;stroke:none;stroke-width:1.14531;stroke-dasharray:2.29061, 1.14531;stroke-opacity:1;paint-order:stroke fill markers"
         id="path50273-12-1"
         cx="226.51901"
         cy="65.81205"
         rx="0.49344867"
         ry="0.49136031" /><rect
         style="fill:#4d4d4d;fill-opacity:1;stroke:none;stroke-width:1.14531;stroke-dasharray:2.29061, 1.14531;stroke-opacity:1;paint-order:stroke fill markers"
         id="rect50375-4-4"
         width="2.5451562"
         height="0.31033283"
         x="214.39058"
         y="65.28788"
         ry="0.045256868" /><rect
         style="fill:#4d4d4d;fill-opacity:1;stroke:none;stroke-width:1.14531;stroke-dasharray:2.29061, 1.14531;stroke-opacity:1;paint-order:stroke fill markers"
         id="rect50375-3-3-3"
         width="2.5451562"
         height="0.31033283"
         x="214.39058"
         y="66.025887"
         ry="0.045256868" /><text
         xml:space="preserve"
         style="font-style:normal;font-variant:normal;font-weight:bold;font-stretch:normal;font-size:3.35272px;line-height:1.25;font-family:Roboto;-inkscape-font-specification:'Roboto Bold';text-align:center;letter-spacing:0px;text-anchor:middle;fill:#4d4d4d;fill-opacity:1;stroke:none;stroke-width:0.2;stroke-dasharray:none;stroke-opacity:1"
         x="220.69252"
         y="51.912174"
         id="text234-7-0"><tspan
           id="tspan234-4-2"
           style="font-style:normal;font-variant:normal;font-weight:900;font-stretch:normal;font-family:Roboto;-inkscape-font-specification:'Roboto Heavy';fill:#4d4d4d;stroke:none;stroke-width:0.2"
           x="220.69252"
           y="51.912174">(BrAPI server)</tspan></text><path
         id="path2846"
         d="m 219.32689,57.747733 c -0.68065,0 -1.23261,0.550932 -1.23261,1.230562 0,0.326746 0.12972,0.639468 0.36098,0.870217 0.23113,0.23126 0.54489,0.360846 0.87163,0.360846 0.0161,0 0.0322,0 0.0483,-0.0015 -0.0161,0.0012 -0.0322,0.0012 -0.0483,0.0015 h 1.23313 v -1.231063 c 0,-0.326235 -0.13023,-0.639478 -0.36149,-0.870217 -0.23113,-0.230748 -0.54437,-0.360345 -0.87164,-0.360345 z m 1.23313,1.247675 c -3.6e-4,0.0166 -0.001,0.0332 -0.002,0.0498 0.001,-0.0166 0.001,-0.0332 0.002,-0.0498 z m -0.002,0.05122 c -7.3e-4,0.01055 -0.001,0.0211 -0.003,0.03114 10e-4,-0.01004 10e-4,-0.02059 0.003,-0.03114 z m -0.006,0.06795 c -7.3e-4,0.01055 -0.003,0.0211 -0.004,0.03166 -0.001,0.01106 -0.003,0.02213 -0.005,0.0332 0.002,-0.01107 0.004,-0.02214 0.005,-0.0332 0.001,-0.01056 0.003,-0.02111 0.004,-0.03166 z m -0.018,0.11453 c -0.002,0.0096 -0.005,0.01969 -0.007,0.02922 0.002,-0.0096 0.005,-0.01969 0.007,-0.02922 z m -0.009,0.03668 c -0.002,0.0097 -0.004,0.01918 -0.007,0.02871 -0.003,0.0096 -0.006,0.01917 -0.008,0.02869 0.003,-0.0096 0.006,-0.01918 0.008,-0.02869 0.003,-0.0096 0.005,-0.01905 0.007,-0.02871 z m -0.0175,0.06486 c -0.008,0.02574 -0.0161,0.05135 -0.0252,0.07644 0.009,-0.02509 0.0176,-0.0507 0.0252,-0.07644 z m -0.0437,0.123158 c -0.009,0.02072 -0.0181,0.04131 -0.0277,0.06139 0.01,-0.02007 0.0187,-0.04066 0.0277,-0.06139 z m -0.0538,0.111712 c -0.005,0.008 -0.009,0.01608 -0.0136,0.02406 0.005,-0.008 0.009,-0.01609 0.0136,-0.02406 z m -0.0136,0.02406 c -0.007,0.01313 -0.0146,0.0256 -0.0225,0.03771 0.008,-0.0121 0.0156,-0.02458 0.0225,-0.03771 z m -0.0351,0.05779 c -0.006,0.0092 -0.0121,0.01865 -0.0187,0.02766 -0.0125,0.01867 -0.0256,0.03668 -0.0396,0.05482 0.014,-0.01814 0.0271,-0.03615 0.0396,-0.05482 0.007,-0.009 0.0126,-0.01853 0.0187,-0.02766 z m -0.0683,0.09549 c -0.0105,0.01313 -0.0211,0.02625 -0.0322,0.03873 0.011,-0.01248 0.0216,-0.0256 0.0322,-0.03873 z m -0.0322,0.03873 c -0.0186,0.02162 -0.0377,0.04222 -0.0574,0.06191 0.0197,-0.01969 0.0387,-0.04029 0.0574,-0.06191 z m -0.33885,0.2745 c -0.0146,0.0081 -0.0297,0.01609 -0.0448,0.02369 0.0151,-0.0076 0.0302,-0.01558 0.0448,-0.02369 z m -0.0905,0.04531 c -0.01,0.0045 -0.0206,0.009 -0.0306,0.01299 0.01,-0.004 0.0206,-0.0085 0.0306,-0.01299 z m -0.12573,0.04826 c -0.011,0.0035 -0.0216,0.0065 -0.0322,0.01004 0.0105,-0.0036 0.0211,-0.0066 0.0322,-0.01004 z m -0.0322,0.01004 c -0.0166,0.0045 -0.0327,0.009 -0.0488,0.01299 0.0161,-0.004 0.0322,-0.0085 0.0488,-0.01299 z m -0.0493,0.01299 c -0.0105,0.0026 -0.0216,0.005 -0.0326,0.0076 0.0109,-0.0026 0.022,-0.005 0.0326,-0.0076 z m -0.0326,0.0076 c -0.0111,0.0024 -0.0221,0.0045 -0.0332,0.007 0.0111,-0.0026 0.0221,-0.0046 0.0332,-0.007 z m -0.0498,0.01004 c -0.0332,0.0055 -0.0664,0.01004 -0.10012,0.01351 0.0337,-0.0035 0.0669,-0.008 0.10012,-0.01351 z m -0.11659,0.01506 c -0.0116,0.0012 -0.0227,0.0015 -0.0337,0.0026 0.011,-0.0012 0.0221,-0.0015 0.0337,-0.0026 z"
         style="fill:#036204;fill-opacity:1;fill-rule:nonzero;stroke:none;stroke-width:0.352777" /><path
         id="path2847"
         d="m 222.21778,57.747733 c 0.68065,0 1.23261,0.550932 1.23261,1.230562 0,0.326746 -0.1296,0.639468 -0.36085,0.870217 -0.23126,0.23126 -0.54501,0.360846 -0.87176,0.360846 -0.0161,0 -0.0322,0 -0.0478,-0.0015 0.0156,0.0012 0.0317,0.0012 0.0478,0.0015 h -1.23313 v -1.231063 c 0,-0.326235 0.13024,-0.639478 0.36149,-0.870217 0.23126,-0.230748 0.54437,-0.360345 0.87164,-0.360345 z m -1.23262,1.247675 c 0,0.0166 3.7e-4,0.0332 0.001,0.0498 -0.001,-0.0166 -0.001,-0.0332 -0.001,-0.0498 z m 0.001,0.05122 c 10e-4,0.01055 10e-4,0.0211 0.003,0.03114 -7.3e-4,-0.01004 -0.001,-0.02059 -0.003,-0.03114 z m 0.006,0.06795 c 10e-4,0.01055 0.003,0.0211 0.004,0.03166 0.001,0.01106 0.003,0.02213 0.005,0.0332 -0.002,-0.01107 -0.004,-0.02214 -0.005,-0.0332 -0.001,-0.01056 -0.003,-0.02111 -0.004,-0.03166 z m 0.018,0.11453 c 0.002,0.0096 0.005,0.01969 0.007,0.02922 -0.002,-0.0096 -0.004,-0.01969 -0.007,-0.02922 z m 0.009,0.03668 c 0.002,0.0097 0.005,0.01918 0.007,0.02871 0.003,0.0096 0.006,0.01917 0.008,0.02869 -0.003,-0.0096 -0.006,-0.01918 -0.008,-0.02869 -0.003,-0.0096 -0.005,-0.01905 -0.007,-0.02871 z m 0.0176,0.06486 c 0.007,0.02574 0.0161,0.05135 0.0251,0.07644 -0.009,-0.02509 -0.0176,-0.0507 -0.0251,-0.07644 z m 0.0436,0.123158 c 0.009,0.02072 0.0181,0.04131 0.0282,0.06139 -0.01,-0.02007 -0.019,-0.04066 -0.0282,-0.06139 z m 0.0538,0.111712 c 0.005,0.008 0.009,0.01608 0.0136,0.02406 -0.005,-0.008 -0.009,-0.01609 -0.0136,-0.02406 z m 0.0136,0.02406 c 0.007,0.01313 0.0146,0.0256 0.0226,0.03771 -0.008,-0.0121 -0.0156,-0.02458 -0.0226,-0.03771 z m 0.0351,0.05779 c 0.006,0.0092 0.0121,0.01865 0.0187,0.02766 0.0126,0.01867 0.0256,0.03668 0.0396,0.05482 -0.014,-0.01814 -0.027,-0.03615 -0.0396,-0.05482 -0.007,-0.009 -0.0126,-0.01853 -0.0187,-0.02766 z m 0.0685,0.09549 c 0.0105,0.01313 0.0211,0.02625 0.0322,0.03873 -0.011,-0.01248 -0.0216,-0.0256 -0.0322,-0.03873 z m 0.0322,0.03873 c 0.0185,0.02162 0.0377,0.04222 0.0573,0.06191 -0.0196,-0.01969 -0.0387,-0.04029 -0.0573,-0.06191 z m 0.33872,0.2745 c 0.0147,0.0081 0.0297,0.01609 0.0448,0.02369 -0.0151,-0.0076 -0.0301,-0.01558 -0.0448,-0.02369 z m 0.0906,0.04531 c 0.01,0.0045 0.0206,0.009 0.0312,0.01299 -0.0105,-0.004 -0.0211,-0.0085 -0.0312,-0.01299 z m 0.12561,0.04826 c 0.0111,0.0035 0.0216,0.0065 0.0322,0.01004 -0.0105,-0.0036 -0.0211,-0.0066 -0.0322,-0.01004 z m 0.0327,0.01004 c 0.0161,0.0045 0.0322,0.009 0.0488,0.01299 -0.0166,-0.004 -0.0327,-0.0085 -0.0488,-0.01299 z m 0.0488,0.01299 c 0.0105,0.0026 0.0216,0.005 0.0327,0.0076 -0.011,-0.0026 -0.0221,-0.005 -0.0327,-0.0076 z m 0.0327,0.0076 c 0.0111,0.0024 0.0222,0.0045 0.0332,0.007 -0.0111,-0.0026 -0.0221,-0.0046 -0.0332,-0.007 z m 0.0498,0.01004 c 0.0331,0.0055 0.0663,0.01004 0.1,0.01351 -0.0337,-0.0035 -0.0669,-0.008 -0.1,-0.01351 z m 0.11711,0.01506 c 0.0111,0.0012 0.0221,0.0015 0.0331,0.0026 -0.0109,-0.0012 -0.022,-0.0015 -0.0331,-0.0026 z"
         style="fill:#03a341;fill-opacity:1;fill-rule:nonzero;stroke:none;stroke-width:0.352777" /><path
         id="path2848"
         d="m 222.21778,63.095753 c 0.68065,0 1.23261,-0.551066 1.23261,-1.230686 0,-0.326748 -0.1296,-0.639856 -0.36085,-0.870604 -0.23126,-0.230749 -0.54501,-0.36047 -0.87176,-0.36047 -0.0161,0 -0.0322,0 -0.0478,0.0012 0.0156,0 0.0317,-0.0012 0.0478,-0.0012 h -1.23313 v 1.231074 c 0,0.326234 0.13024,0.639467 0.36149,0.870215 0.23126,0.230749 0.54437,0.360471 0.87164,0.360471 z m -1.23262,-1.247799 c 0,-0.0166 3.7e-4,-0.03309 0.001,-0.04968 -0.001,0.0166 -0.001,0.03309 -0.001,0.04968 z m 0.001,-0.05123 c 10e-4,-0.01054 10e-4,-0.02112 0.003,-0.03166 -7.3e-4,0.01054 -0.001,0.02112 -0.003,0.03166 z m 0.006,-0.06782 c 10e-4,-0.01054 0.003,-0.02108 0.004,-0.03177 0.001,-0.01094 0.003,-0.02251 0.005,-0.0336 -0.002,0.01105 -0.004,0.02265 -0.005,0.0336 -0.001,0.01069 -0.003,0.02123 -0.004,0.03177 z m 0.018,-0.114666 c 0.002,-0.01003 0.005,-0.01955 0.007,-0.02922 -0.002,0.0097 -0.004,0.01919 -0.007,0.02922 z m 0.009,-0.03719 c 0.002,-0.0096 0.005,-0.01919 0.007,-0.02869 0.003,-0.0096 0.006,-0.01905 0.008,-0.02857 -0.003,0.0096 -0.006,0.01904 -0.008,0.02857 -0.003,0.0096 -0.005,0.01917 -0.007,0.02869 z m 0.0176,-0.06435 c 0.007,-0.0256 0.0161,-0.05135 0.0251,-0.07644 -0.009,0.02509 -0.0176,0.05084 -0.0251,0.07644 z m 0.0436,-0.123158 c 0.009,-0.0211 0.0181,-0.04117 0.0282,-0.06139 -0.01,0.02021 -0.019,0.04029 -0.0282,0.06139 z m 0.0538,-0.111577 c 0.005,-0.0081 0.009,-0.01608 0.0136,-0.02419 -0.005,0.0081 -0.009,0.01608 -0.0136,0.02419 z m 0.0136,-0.02471 c 0.007,-0.01248 0.0146,-0.02509 0.0226,-0.0377 -0.008,0.0126 -0.0156,0.02522 -0.0226,0.0377 z m 0.0351,-0.05726 c 0.006,-0.0096 0.0121,-0.01866 0.0187,-0.02818 0.0126,-0.01802 0.0256,-0.03617 0.0396,-0.05431 -0.014,0.01815 -0.027,0.03629 -0.0396,0.05431 -0.007,0.0096 -0.0126,0.01866 -0.0187,0.02818 z m 0.0685,-0.09549 c 0.0105,-0.01313 0.0211,-0.02613 0.0322,-0.03925 -0.011,0.01313 -0.0216,0.02613 -0.0322,0.03925 z m 0.0322,-0.03925 c 0.0185,-0.02111 0.0377,-0.0417 0.0573,-0.06177 -0.0196,0.02007 -0.0387,0.04066 -0.0573,0.06177 z m 0.33872,-0.273989 c 0.0147,-0.008 0.0297,-0.01608 0.0448,-0.02355 -0.0151,0.0074 -0.0301,0.01558 -0.0448,0.02355 z m 0.0906,-0.04517 c 0.01,-0.0046 0.0206,-0.0092 0.0312,-0.01364 -0.0105,0.0045 -0.0211,0.009 -0.0312,0.01364 z m 0.12561,-0.04826 c 0.0111,-0.0036 0.0216,-0.007 0.0322,-0.01016 -0.0105,0.0031 -0.0211,0.0066 -0.0322,0.01016 z m 0.0327,-0.01016 c 0.0161,-0.0045 0.0322,-0.009 0.0488,-0.013 -0.0166,0.004 -0.0327,0.0085 -0.0488,0.013 z m 0.0488,-0.013 c 0.0105,-0.0031 0.0216,-0.0055 0.0327,-0.0076 -0.011,0.002 -0.0221,0.0045 -0.0327,0.0076 z m 0.0327,-0.0076 c 0.0111,-0.0024 0.0222,-0.005 0.0332,-0.007 -0.0111,0.0019 -0.0221,0.0045 -0.0332,0.007 z m 0.0498,-0.01004 c 0.0331,-0.0061 0.0663,-0.01056 0.1,-0.01351 -0.0337,0.003 -0.0669,0.0074 -0.1,0.01351 z m 0.11711,-0.01506 c 0.0111,-0.0012 0.0221,-0.002 0.0331,-0.0026 -0.0109,0 -0.022,0.0015 -0.0331,0.0026 z"
         style="fill:#a4c214;fill-opacity:1;fill-rule:nonzero;stroke:none;stroke-width:0.352777" /><path
         id="path2849"
         d="m 219.32689,63.095753 c -0.68065,0 -1.23261,-0.551066 -1.23261,-1.230686 0,-0.326748 0.12972,-0.639856 0.36098,-0.870604 0.23113,-0.230749 0.54489,-0.36047 0.87163,-0.36047 0.0161,0 0.0322,0 0.0483,0.0012 -0.0161,0 -0.0322,-0.0012 -0.0483,-0.0012 h 1.23313 v 1.231074 c 0,0.326234 -0.13023,0.639467 -0.36149,0.870215 -0.23113,0.230749 -0.54437,0.360471 -0.87164,0.360471 z m 1.23313,-1.247799 c -3.6e-4,-0.0166 -0.001,-0.03309 -0.002,-0.04968 0.001,0.0166 0.001,0.03309 0.002,0.04968 z m -0.002,-0.05123 c -7.3e-4,-0.01054 -0.001,-0.02112 -0.003,-0.03166 10e-4,0.01054 10e-4,0.02112 0.003,0.03166 z m -0.006,-0.06782 c -7.3e-4,-0.01054 -0.003,-0.02108 -0.004,-0.03177 -0.001,-0.01094 -0.003,-0.02251 -0.005,-0.0336 0.002,0.01105 0.004,0.02265 0.005,0.0336 0.001,0.01069 0.003,0.02123 0.004,0.03177 z m -0.018,-0.114666 c -0.002,-0.01003 -0.005,-0.01955 -0.007,-0.02922 0.002,0.0097 0.005,0.01919 0.007,0.02922 z m -0.009,-0.03719 c -0.002,-0.0096 -0.004,-0.01919 -0.007,-0.02869 -0.003,-0.0096 -0.006,-0.01905 -0.008,-0.02857 0.003,0.0096 0.006,0.01904 0.008,0.02857 0.003,0.0096 0.005,0.01917 0.007,0.02869 z m -0.0175,-0.06435 c -0.008,-0.0256 -0.0161,-0.05135 -0.0252,-0.07644 0.009,0.02509 0.0176,0.05084 0.0252,0.07644 z m -0.0437,-0.123158 c -0.009,-0.0211 -0.0181,-0.04117 -0.0277,-0.06139 0.01,0.02021 0.0187,0.04029 0.0277,0.06139 z m -0.0538,-0.111577 c -0.005,-0.0081 -0.009,-0.01608 -0.0136,-0.02419 0.005,0.0081 0.009,0.01608 0.0136,0.02419 z m -0.0136,-0.02471 c -0.007,-0.01248 -0.0146,-0.02509 -0.0225,-0.0377 0.008,0.0126 0.0156,0.02522 0.0225,0.0377 z m -0.0351,-0.05726 c -0.006,-0.0096 -0.0121,-0.01866 -0.0187,-0.02818 -0.0125,-0.01802 -0.0256,-0.03617 -0.0396,-0.05431 0.014,0.01815 0.0271,0.03629 0.0396,0.05431 0.007,0.0096 0.0126,0.01866 0.0187,0.02818 z m -0.0683,-0.09549 c -0.0105,-0.01313 -0.0211,-0.02613 -0.0322,-0.03925 0.011,0.01313 0.0216,0.02613 0.0322,0.03925 z m -0.0322,-0.03925 c -0.0186,-0.02111 -0.0377,-0.0417 -0.0574,-0.06177 0.0197,0.02007 0.0387,0.04066 0.0574,0.06177 z m -0.33885,-0.273989 c -0.0146,-0.008 -0.0297,-0.01608 -0.0448,-0.02355 0.0151,0.0074 0.0302,0.01558 0.0448,0.02355 z m -0.0905,-0.04517 c -0.01,-0.0046 -0.0206,-0.0092 -0.0306,-0.01364 0.01,0.0045 0.0206,0.009 0.0306,0.01364 z m -0.12573,-0.04826 c -0.011,-0.0036 -0.0216,-0.007 -0.0322,-0.01016 0.0105,0.0031 0.0211,0.0066 0.0322,0.01016 z m -0.0322,-0.01016 c -0.0166,-0.0045 -0.0327,-0.009 -0.0488,-0.013 0.0161,0.004 0.0322,0.0085 0.0488,0.013 z m -0.0493,-0.013 c -0.0105,-0.0031 -0.0216,-0.0055 -0.0326,-0.0076 0.0109,0.002 0.022,0.0045 0.0326,0.0076 z m -0.0326,-0.0076 c -0.0111,-0.0024 -0.0221,-0.005 -0.0332,-0.007 0.0111,0.0019 0.0221,0.0045 0.0332,0.007 z m -0.0498,-0.01004 c -0.0332,-0.0061 -0.0664,-0.01056 -0.10012,-0.01351 0.0337,0.003 0.0669,0.0074 0.10012,0.01351 z m -0.11659,-0.01506 c -0.0116,-0.0012 -0.0227,-0.002 -0.0337,-0.0026 0.011,0 0.0221,0.0015 0.0337,0.0026 z"
         style="fill:#945e06;fill-opacity:1;fill-rule:nonzero;stroke:none;stroke-width:0.352777" /></g><path
       id="path243"
       style="vector-effect:none;fill:#808080;fill-opacity:1;stroke:none;stroke-width:0.132292;stroke-linecap:butt;stroke-linejoin:round;stroke-miterlimit:4;stroke-dasharray:none;stroke-dashoffset:0;stroke-opacity:1"
       d="m 77.248219,-130.10059 c -0.18779,0 -0.3597,0.0417 -0.51573,0.12454 -0.15604,0.0815 -0.29089,0.19316 -0.40411,0.33538 -0.11461,0.1436 -0.20502,0.3114 -0.2713,0.50333 -0.0649,0.19193 -0.10056,0.3973 -0.10749,0.61547 -0.007,0.21954 0.0109,0.41753 0.0537,0.59427 0.0442,0.17537 0.11403,0.32463 0.20929,0.44752 0.0953,0.1229 0.21589,0.21743 0.36225,0.28371 0.12423,0.0563 0.26853,0.0881 0.43254,0.0966 0.66402,0.72805 1.09006,2.08721 2.0283,2.08721 h 1.28364 c 1.03693,0 1.44801,-1.66057 2.24637,-2.29392 0.15399,0.12216 0.29387,0.28319 0.42633,0.4625 0.0723,-0.10102 0.14592,-0.19965 0.22427,-0.28938 0.029,-0.0332 0.0589,-0.0657 0.0894,-0.0971 0.0302,-0.0312 0.0611,-0.0614 0.093,-0.0904 0.0594,-0.0539 0.12237,-0.10206 0.1881,-0.14521 -0.1173,-0.0517 -0.24256,-0.0822 -0.3793,-0.0822 h -1.28313 c -1.03691,0 -1.44852,1.66057 -2.24688,2.29391 -0.75336,-0.59764 -1.16243,-2.10879 -2.0774,-2.27738 v -5.2e-4 c -0.0317,0.0166 -0.0674,0.0322 -0.10748,0.046 -0.0387,0.0138 -0.0797,0.0255 -0.12248,0.0351 -0.0442,0.011 -0.0888,0.0193 -0.13435,0.0248 -0.0455,0.005 -0.09,0.008 -0.13281,0.008 -0.13532,0 -0.25525,-0.0226 -0.36019,-0.0682 -0.10356,-0.0456 -0.18917,-0.11471 -0.25683,-0.20723 -0.069,-0.0911 -0.12034,-0.20556 -0.15348,-0.34365 -0.0317,-0.13808 -0.0441,-0.29969 -0.0372,-0.48472 0.005,-0.18365 0.0307,-0.35213 0.0765,-0.5054 0.0455,-0.15465 0.10849,-0.28813 0.18861,-0.39997 0.0787,-0.11185 0.17393,-0.19883 0.28578,-0.26097 0.11322,-0.0635 0.24053,-0.0951 0.38137,-0.0951 0.12427,0 0.2339,0.0192 0.32918,0.0579 0.0953,0.0387 0.17471,0.0982 0.23822,0.17829 0.0635,0.0801 0.10951,0.18217 0.1385,0.30644 0.0304,0.12289 0.0427,0.26872 0.0372,0.43718 0,0.10908 -0.006,0.20979 -0.0186,0.30231 -0.0111,0.0911 -0.0275,0.16988 -0.0496,0.23616 -0.0221,0.0663 -0.0482,0.11775 -0.0786,0.15503 -0.029,0.0373 -0.0613,0.0558 -0.0971,0.0558 -0.0138,0 -0.0275,-0.001 -0.0413,-0.004 -0.0138,-0.003 -0.026,-0.01 -0.0357,-0.0207 -0.0111,-0.011 -0.0193,-0.0275 -0.0248,-0.0496 -0.004,-0.0221 -0.005,-0.053 -0.002,-0.093 l 0.0894,-1.09141 c -0.0428,-0.0428 -0.0989,-0.0797 -0.16795,-0.11007 -0.069,-0.0318 -0.1567,-0.0475 -0.26303,-0.0475 -0.10494,0 -0.19948,0.022 -0.2837,0.0662 -0.0842,0.0428 -0.15749,0.1044 -0.21963,0.18449 -0.0621,0.0815 -0.11291,0.17874 -0.15296,0.29197 -0.0387,0.11322 -0.0659,0.24053 -0.0811,0.38137 -0.0111,0.12013 -0.01,0.22907 0.004,0.32711 0.0152,0.098 0.0419,0.18159 0.0806,0.25063 0.0387,0.0704 0.0893,0.12395 0.15141,0.16123 0.0621,0.0373 0.1347,0.0563 0.21756,0.0563 0.0414,0 0.0805,-0.006 0.11782,-0.0186 0.0373,-0.0138 0.0728,-0.0328 0.10594,-0.0563 0.0221,-0.0166 0.0433,-0.0351 0.0641,-0.0558 0.0207,-0.0221 0.0399,-0.0454 0.0579,-0.0703 0.0152,0.029 0.0323,0.0551 0.0517,0.0786 0.0193,0.0235 0.0411,0.0434 0.0646,0.0599 0.029,0.0221 0.0613,0.0391 0.0972,0.0501 0.0359,0.011 0.0737,0.0165 0.11368,0.0165 0.10633,0 0.19743,-0.0314 0.27337,-0.0935 0.076,-0.0635 0.13891,-0.14638 0.18862,-0.24856 0.0483,-0.1008 0.0852,-0.21455 0.11007,-0.34158 0.0249,-0.12842 0.0393,-0.25726 0.0434,-0.38706 v -5.1e-4 c 0.005,-0.19194 -0.0145,-0.36659 -0.0599,-0.524 -0.0455,-0.15742 -0.11331,-0.29244 -0.20309,-0.40566 -0.0911,-0.11185 -0.20214,-0.19815 -0.33332,-0.2589 -0.13117,-0.0621 -0.27837,-0.0935 -0.44131,-0.0935 z m 0.062,0.94671 c 0.0165,0 0.0296,6.7e-4 0.0393,0.002 0.01,0.001 0.0184,0.003 0.0253,0.004 l -0.0791,0.92604 -0.002,0.0269 c -0.0124,0.0193 -0.0247,0.0358 -0.0372,0.0496 -0.0124,0.0138 -0.0247,0.0255 -0.0372,0.0351 -0.0207,0.0152 -0.042,0.0262 -0.0641,0.0331 -0.0207,0.006 -0.0413,0.008 -0.062,0.008 -0.0345,0 -0.0653,-0.0103 -0.0915,-0.031 -0.0262,-0.0207 -0.0475,-0.0523 -0.0641,-0.0951 -0.0152,-0.0387 -0.0262,-0.0879 -0.0331,-0.14727 -0.005,-0.0594 -0.006,-0.12731 -0.002,-0.20464 0.01,-0.098 0.0247,-0.18434 0.0455,-0.2589 0.0221,-0.0759 0.0495,-0.1396 0.0827,-0.19069 0.0331,-0.0525 0.0728,-0.0921 0.11834,-0.11834 0.0469,-0.0262 0.10046,-0.0393 0.16123,-0.0393 z m 1.11156,1.60611 c 0.76406,0 1.18863,0.90035 1.67845,1.62832 0.17279,-0.24606 0.3411,-0.52024 0.51728,-0.78238 0.0413,-0.0615 0.0841,-0.12079 0.12713,-0.17932 -0.28717,-0.37974 -0.60952,-0.66662 -1.03973,-0.66662 z m 5.77639,0 c -0.28025,0 -0.51463,0.12097 -0.72347,0.31057 -0.0298,0.027 -0.059,0.0557 -0.0879,0.0853 -0.0288,0.0297 -0.0573,0.0606 -0.0853,0.0925 -0.3916,0.44852 -0.70343,1.10948 -1.09502,1.55805 -0.028,0.032 -0.0559,0.0628 -0.0847,0.0925 -0.0548,0.0564 -0.1115,0.1081 -0.17002,0.15451 -0.15388,-0.12209 -0.29343,-0.28284 -0.42581,-0.46199 -0.13958,0.19615 -0.28788,0.37793 -0.45785,0.5209 -0.0436,0.0367 -0.0889,0.0708 -0.13591,0.1018 0.11681,0.0511 0.24169,0.0811 0.37776,0.0811 h 1.28312 c 0.92085,0 1.34833,-1.31004 1.99161,-2.0469 0.028,-0.032 0.0564,-0.0628 0.0853,-0.0925 0.0548,-0.0565 0.11147,-0.1081 0.17002,-0.15451 0.79836,0.63334 1.20945,2.29391 2.24637,2.29391 h 1.28365 c -1.28117,0 -1.60703,-2.53524 -2.8882,-2.53524 z m 0.216,0.90175 c -0.20822,0.3019 -0.40861,0.64657 -0.62941,0.95291 -0.004,0.004 -0.007,0.0101 -0.0109,0.0145 0.28702,0.37936 0.60877,0.66611 1.0387,0.66611 h 1.28364 c -0.76575,0 -1.19085,-0.9046 -1.68207,-1.63349 z" /><path
       id="path243-6"
       style="vector-effect:none;fill:#808080;fill-opacity:1;stroke:none;stroke-width:0.132292;stroke-linecap:butt;stroke-linejoin:round;stroke-miterlimit:4;stroke-dasharray:none;stroke-dashoffset:0;stroke-opacity:1"
       d="m 77.248219,-44.151564 c -0.18779,0 -0.3597,0.0417 -0.51573,0.12454 -0.15604,0.0815 -0.29089,0.19316 -0.40411,0.33538 -0.11461,0.1436 -0.20502,0.3114 -0.2713,0.50333 -0.0649,0.19193 -0.10056,0.3973 -0.10749,0.61546 -0.007,0.21955 0.0109,0.41754 0.0537,0.59428 0.0442,0.17537 0.11403,0.32463 0.20929,0.447524 0.0953,0.12289 0.21589,0.21743 0.36225,0.2837 0.12423,0.0563 0.26853,0.0881 0.43254,0.0966 0.66402,0.72805 1.09006,2.08722 2.0283,2.08722 h 1.28364 c 1.03693,0 1.44801,-1.66057 2.24637,-2.29392 0.15399,0.12216 0.29387,0.28319 0.42633,0.4625 0.0723,-0.10102 0.14592,-0.19966 0.22427,-0.28939 0.029,-0.0332 0.0589,-0.0658 0.0894,-0.0971 0.0302,-0.0312 0.0611,-0.0614 0.093,-0.0904 0.0594,-0.0539 0.12237,-0.10206 0.1881,-0.14521 -0.1173,-0.0517 -0.24256,-0.0822 -0.3793,-0.0822 h -1.28313 c -1.03691,0 -1.44852,1.66058 -2.24688,2.29392 -0.75336,-0.59764 -1.16243,-2.10879 -2.0774,-2.27738 v -5.2e-4 c -0.0317,0.0166 -0.0674,0.0322 -0.10748,0.046 -0.0387,0.0138 -0.0797,0.0255 -0.12248,0.0351 -0.0442,0.0111 -0.0888,0.0193 -0.13435,0.0248 -0.0455,0.006 -0.09,0.008 -0.13281,0.008 -0.13532,0 -0.25525,-0.0226 -0.36019,-0.0682 -0.10356,-0.0456 -0.18917,-0.114714 -0.25683,-0.207224 -0.069,-0.0911 -0.12034,-0.20557 -0.15348,-0.34365 -0.0317,-0.13808 -0.0441,-0.29969 -0.0372,-0.48472 0.005,-0.18365 0.0307,-0.35213 0.0765,-0.5054 0.0455,-0.15465 0.10849,-0.28813 0.18861,-0.39997 0.0787,-0.11185 0.17393,-0.19883 0.28578,-0.26097 0.11322,-0.0635 0.24053,-0.0951 0.38137,-0.0951 0.12427,0 0.2339,0.0192 0.32918,0.0579 0.0953,0.0387 0.17471,0.0982 0.23822,0.17828 0.0635,0.0801 0.10951,0.18217 0.1385,0.30645 0.0304,0.12289 0.0427,0.26872 0.0372,0.43718 0,0.10908 -0.006,0.20979 -0.0186,0.30231 -0.0111,0.0911 -0.0275,0.16988 -0.0496,0.23616 -0.0221,0.0663 -0.0482,0.11775 -0.0786,0.15503 -0.029,0.0373 -0.0613,0.0558 -0.0971,0.0558 -0.0138,0 -0.0275,-10e-4 -0.0413,-0.004 -0.0138,-0.003 -0.026,-0.01 -0.0357,-0.0207 -0.0111,-0.0111 -0.0193,-0.0275 -0.0248,-0.0496 -0.004,-0.0221 -0.005,-0.053 -0.002,-0.093 l 0.0894,-1.09141 c -0.0428,-0.0428 -0.0989,-0.0797 -0.16795,-0.11007 -0.069,-0.0318 -0.1567,-0.0475 -0.26303,-0.0475 -0.10494,0 -0.19948,0.022 -0.2837,0.0662 -0.0842,0.0428 -0.15749,0.1044 -0.21963,0.18448 -0.0621,0.0815 -0.11291,0.17875 -0.15296,0.29198 -0.0387,0.11322 -0.0659,0.24053 -0.0811,0.38137 -0.0111,0.12013 -0.01,0.22907 0.004,0.32711 0.0152,0.098 0.0419,0.18159 0.0806,0.25063 0.0387,0.0704 0.0893,0.12395 0.15141,0.16123 0.0621,0.0373 0.1347,0.0563 0.21756,0.0563 0.0414,0 0.0805,-0.006 0.11782,-0.0186 0.0373,-0.0138 0.0728,-0.0328 0.10594,-0.0563 0.0221,-0.0166 0.0433,-0.0351 0.0641,-0.0558 0.0207,-0.0221 0.0399,-0.0454 0.0579,-0.0703 0.0152,0.029 0.0323,0.0551 0.0517,0.0785 0.0193,0.0235 0.0411,0.0434 0.0646,0.0599 0.029,0.0221 0.0613,0.0391 0.0972,0.0501 0.0359,0.0111 0.0737,0.0165 0.11368,0.0165 0.10633,0 0.19743,-0.0314 0.27337,-0.0935 0.076,-0.0635 0.13891,-0.14639 0.18862,-0.24856 0.0483,-0.1008 0.0852,-0.21455 0.11007,-0.34158 0.0249,-0.12842 0.0393,-0.25726 0.0434,-0.38706 v -5.2e-4 c 0.005,-0.19193 -0.0145,-0.36658 -0.0599,-0.524 -0.0455,-0.15741 -0.11331,-0.29243 -0.20309,-0.40566 -0.0911,-0.11184 -0.20214,-0.19814 -0.33332,-0.25889 -0.13117,-0.0621 -0.27837,-0.0935 -0.44131,-0.0935 z m 0.062,0.94671 c 0.0165,0 0.0296,6.7e-4 0.0393,0.002 0.01,0.001 0.0184,0.003 0.0253,0.004 l -0.0791,0.92604 -0.002,0.0269 c -0.0124,0.0193 -0.0247,0.0358 -0.0372,0.0496 -0.0124,0.0138 -0.0247,0.0255 -0.0372,0.0351 -0.0207,0.0152 -0.042,0.0262 -0.0641,0.0331 -0.0207,0.006 -0.0413,0.008 -0.062,0.008 -0.0345,0 -0.0653,-0.0103 -0.0915,-0.031 -0.0262,-0.0207 -0.0475,-0.0523 -0.0641,-0.0951 -0.0152,-0.0387 -0.0262,-0.0879 -0.0331,-0.14728 -0.005,-0.0594 -0.006,-0.12731 -0.002,-0.20463 0.01,-0.098 0.0247,-0.18434 0.0455,-0.2589 0.0221,-0.0759 0.0495,-0.1396 0.0827,-0.19069 0.0331,-0.0525 0.0728,-0.0921 0.11834,-0.11834 0.0469,-0.0262 0.10046,-0.0393 0.16123,-0.0393 z m 1.11156,1.6061 c 0.76406,0 1.18863,0.900364 1.67845,1.628334 0.17279,-0.24606 0.3411,-0.52024 0.51728,-0.78238 0.0413,-0.0615 0.0841,-0.12079 0.12713,-0.17932 -0.28717,-0.37974 -0.60952,-0.666634 -1.03973,-0.666634 z m 5.77639,0 c -0.28025,0 -0.51463,0.120984 -0.72347,0.310584 -0.0298,0.027 -0.059,0.0557 -0.0879,0.0853 -0.0288,0.0297 -0.0573,0.0606 -0.0853,0.0925 -0.3916,0.44852 -0.70343,1.10947 -1.09502,1.55804 -0.028,0.032 -0.0559,0.0628 -0.0847,0.0925 -0.0548,0.0564 -0.1115,0.10811 -0.17002,0.15452 -0.15388,-0.12209 -0.29343,-0.28284 -0.42581,-0.46199 -0.13958,0.19615 -0.28788,0.37793 -0.45785,0.5209 -0.0436,0.0367 -0.0889,0.0708 -0.13591,0.1018 0.11681,0.0511 0.24169,0.0811 0.37776,0.0811 h 1.28312 c 0.92085,0 1.34833,-1.31004 1.99161,-2.0469 0.028,-0.032 0.0564,-0.0628 0.0853,-0.0925 0.0548,-0.0565 0.11147,-0.10811 0.17002,-0.15452 0.79836,0.63335 1.20945,2.29392 2.24637,2.29392 h 1.28365 c -1.28117,0 -1.60703,-2.535254 -2.8882,-2.535254 z m 0.216,0.901764 c -0.20822,0.3019 -0.40861,0.64656 -0.62941,0.95291 -0.004,0.004 -0.007,0.0101 -0.0109,0.0145 0.28702,0.37936 0.60877,0.66611 1.0387,0.66611 h 1.28364 c -0.76575,0 -1.19085,-0.9046 -1.68207,-1.63349 z" /></g></svg>
